<?xml version="1.0" encoding="utf-8"?>
<!-- Generator: Adobe Illustrator 16.0.0, SVG Export Plug-In . SVG Version: 6.00 Build 0)  -->
<!DOCTYPE svg PUBLIC "-//W3C//DTD SVG 1.1//EN" "http://www.w3.org/Graphics/SVG/1.1/DTD/svg11.dtd">
<svg version="1.1" id="Layer_1" xmlns="http://www.w3.org/2000/svg" xmlns:xlink="http://www.w3.org/1999/xlink" x="0px" y="0px"
	 width="245px" height="245px" viewBox="0 0 245 245" enable-background="new 0 0 245 245" xml:space="preserve">
<circle stroke="#000000" stroke-miterlimit="10" cx="122.872" cy="122.578" r="121.5"/>
<ellipse fill="#FFFFFF" stroke="#000000" stroke-miterlimit="10" cx="128.055" cy="125.217" rx="73.375" ry="82.523"/>
<path d="M140.167,124.176c-3.379-1.111-8.245-0.873-14.596-0.873h-25.515v33.303h27.285c4.264,0,7.258-0.457,8.982-0.773
	c3.039-0.545,5.58-1.6,7.622-2.871c2.04-1.268,3.718-3.193,5.035-5.619c1.315-2.428,1.975-5.266,1.975-8.443
	c0-3.717-0.953-6.572-2.86-9.318C146.19,126.836,143.548,125.287,140.167,124.176z M136.664,108.949
	c3.355-0.996,5.885-2.736,7.586-5.049c1.703-2.313,2.553-5.258,2.553-8.751c0-3.311-0.795-6.247-2.384-8.766
	c-1.588-2.52-3.854-3.495-6.804-4.425c-2.949-0.928-8.006-0.646-15.174-0.646h-22.385v28.959h24.018
	C129.928,110.271,134.121,109.72,136.664,108.949z M212.997,56.154c0-13.295-10.777-24.072-24.072-24.072H56.076
	c-13.295,0-24.072,10.777-24.072,24.072v132.848c0,13.297,10.777,24.074,24.072,24.074h132.849
	c13.295,0,24.072-10.777,24.072-24.074V56.154z M161.672,151.893c-1.973,4.016-4.412,7.111-7.315,9.289
	c-2.904,2.178-6.546,4.025-10.923,5.137c-4.377,1.113-9.742,1.871-16.092,1.871H87.025V68.281h39.703
	c7.621,0,13.734,0.882,18.338,2.899c4.606,2.02,8.212,5.063,10.822,9.259c2.608,4.196,3.913,8.554,3.913,13.135
	c0,4.265-1.159,8.265-3.471,12.029c-2.314,3.768-5.809,6.797-10.479,9.111c6.032,1.769,10.671,4.782,13.914,9.047
	c3.244,4.264,4.865,9.297,4.865,15.104C164.631,143.537,163.646,147.879,161.672,151.893z"/>
</svg>
