<?xml version="1.0" encoding="utf-8"?>
<!-- Generator: Adobe Illustrator 16.0.0, SVG Export Plug-In . SVG Version: 6.00 Build 0)  -->
<!DOCTYPE svg PUBLIC "-//W3C//DTD SVG 1.1//EN" "http://www.w3.org/Graphics/SVG/1.1/DTD/svg11.dtd">
<svg version="1.1" id="Layer_1" xmlns="http://www.w3.org/2000/svg" xmlns:xlink="http://www.w3.org/1999/xlink" x="0px" y="0px"
	 width="245px" height="245px" viewBox="0 0 245 245" enable-background="new 0 0 245 245" xml:space="preserve">
<circle stroke="#000000" stroke-miterlimit="10" cx="122.872" cy="122.578" r="121.5"/>
<ellipse fill="#FFFFFF" stroke="#000000" stroke-miterlimit="10" cx="124.542" cy="124.651" rx="69.862" ry="83.089"/>
<path d="M43.632,38.636l14.886,167.111l66.792,18.626l66.98-18.693l14.896-167.044H43.632L43.632,38.636z M176.264,76.922
	l-4.955,55.672l0.016,0.299l-0.021,0.692v-0.008l-3.521,38.928l-0.387,3.458l-41.985,11.613l0,0l-0.033,0.028l-41.911-11.677
	l-2.838-32.184h20.552l1.459,16.366l22.777,6.172l-0.006,0.012v-0.002l22.861-6.261l2.417-26.65h-47.793l-0.409-4.503l-0.936-10.555
	l-0.489-5.667h51.443l1.871-20.726H76.023l-0.41-4.502L74.68,76.872l-0.49-5.667h102.563L176.264,76.922z"/>
</svg>
