<?xml version="1.0" encoding="utf-8"?>
<!-- Generator: Adobe Illustrator 16.0.0, SVG Export Plug-In . SVG Version: 6.00 Build 0)  -->
<!DOCTYPE svg PUBLIC "-//W3C//DTD SVG 1.1//EN" "http://www.w3.org/Graphics/SVG/1.1/DTD/svg11.dtd">
<svg version="1.1" id="Layer_1" xmlns="http://www.w3.org/2000/svg" xmlns:xlink="http://www.w3.org/1999/xlink" x="0px" y="0px"
	 width="245px" height="245px" viewBox="0 0 245 245" enable-background="new 0 0 245 245" xml:space="preserve">
<circle cx="122.5" cy="122.5" r="121.5"/>
<g>
	<g>
		<path fill="#FFFFFF" d="M191.818,77.384c0.283-2.021,0.42-4.075,0.42-6.13c0-25.63-20.852-46.492-46.494-46.492
			c-14.867,0-28.522,7.026-37.171,18.547c-3.054-0.737-6.163-1.112-9.318-1.112c-22.43,0-40.682,18.252-40.682,40.681
			c0,0.567,0.012,1.123,0.035,1.68c-16.811,4.994-29.092,20.59-29.092,39.002c0,22.428,18.251,40.68,40.68,40.68h98.796
			c25.641,0,46.49-20.852,46.49-46.492C215.482,100.8,206.164,85.487,191.818,77.384z M168.992,152.615H70.196
			c-16.049,0-29.057-13.008-29.057-29.057c0-16.051,13.008-29.06,29.057-29.06c0.886,0,1.726,0.183,2.588,0.262
			c-1.634-3.632-2.588-7.639-2.588-11.884c0-16.05,13.008-29.058,29.059-29.058c5.243,0,10.102,1.498,14.347,3.928
			c5.267-12.554,17.672-21.362,32.143-21.362c19.264,0,34.869,15.607,34.869,34.869c0,4.586-0.941,8.944-2.553,12.963
			c14.834,4.018,25.801,17.434,25.801,33.529C203.861,137.008,188.254,152.615,168.992,152.615z"/>
		<polygon fill="#FFFFFF" points="134.123,71.254 110.877,71.254 110.877,106.123 87.631,106.123 122.5,140.992 157.369,106.123 
			134.123,106.123 		"/>
	</g>
</g>
<text transform="matrix(1 0 0 1 83.4878 216.5303)" fill="#FFFFFF" font-family="'Dutch801BT-ExtraBold'" font-size="60">CV</text>
</svg>
