<?xml version="1.0" encoding="utf-8"?>
<!-- Generator: Adobe Illustrator 16.0.0, SVG Export Plug-In . SVG Version: 6.00 Build 0)  -->
<!DOCTYPE svg PUBLIC "-//W3C//DTD SVG 1.1//EN" "http://www.w3.org/Graphics/SVG/1.1/DTD/svg11.dtd">
<svg version="1.1" id="Layer_1" xmlns="http://www.w3.org/2000/svg" xmlns:xlink="http://www.w3.org/1999/xlink" x="0px" y="0px"
	 width="245px" height="245px" viewBox="0 0 245 245" enable-background="new 0 0 245 245" xml:space="preserve">
<circle stroke="#000000" stroke-miterlimit="10" cx="-138.128" cy="122.578" r="121.5"/>
<path fill="#FFFFFF" stroke="#000000" stroke-miterlimit="10" d="M352.971,61.189c54.197-0.179,105.869,22.769,98.299,50.417
	c-13.963,50.954-43.719,46.175-97.916,46.353c-15.036,0.049-21.913-4.265-42.085-0.029c-43.032,9.035-56.188-25.432-56.257-45.678
	C254.921,84.229,298.781,61.367,352.971,61.189z"/>
<g>
	<path d="M122.498,1C55.405,1,1,56.771,1,125.576c0,55.043,34.813,101.738,83.088,118.214c6.07,1.155,8.299-2.702,8.299-5.995
		c0-2.971-0.112-12.783-0.165-23.193c-33.8,7.537-40.934-14.698-40.934-14.698c-5.527-14.398-13.49-18.229-13.49-18.229
		c-11.026-7.729,0.83-7.571,0.83-7.571c12.199,0.879,18.625,12.839,18.625,12.839c10.835,19.042,28.423,13.536,35.355,10.355
		c1.091-8.051,4.239-13.55,7.715-16.66c-26.987-3.145-55.358-13.83-55.358-61.564c0-13.601,4.749-24.715,12.521-33.44
		c-1.264-3.136-5.422-15.807,1.175-32.965c0,0,10.201-3.349,33.418,12.771c9.693-2.764,20.089-4.151,30.417-4.2
		c10.322,0.048,20.725,1.431,30.436,4.195c23.189-16.117,33.379-12.771,33.379-12.771c6.612,17.158,2.453,29.832,1.193,32.967
		c7.79,8.727,12.504,19.839,12.504,33.44c0,47.847-28.424,58.381-55.479,61.466c4.359,3.867,8.242,11.45,8.242,23.071
		c0,16.668-0.141,30.084-0.141,34.186c0,3.316,2.188,7.201,8.346,5.978C209.227,227.277,244,180.598,244,125.575
		c-0.004-68.8-54.402-124.573-121.502-124.573V1z"/>
	<path fill="#181616" d="M47.017,179.862c-0.268,0.619-1.218,0.805-2.083,0.383c-0.885-0.404-1.377-1.247-1.091-1.869
		c0.261-0.641,1.212-0.814,2.093-0.388c0.885,0.405,1.387,1.259,1.08,1.878L47.017,179.862z M51.938,185.492
		c-0.577,0.551-1.709,0.295-2.479-0.577c-0.797-0.866-0.946-2.027-0.356-2.588c0.599-0.547,1.698-0.289,2.494,0.579
		c0.793,0.879,0.95,2.029,0.342,2.588L51.938,185.492z M56.731,192.666c-0.744,0.531-1.964,0.035-2.715-1.073
		c-0.745-1.109-0.745-2.438,0.019-2.971c0.75-0.53,1.952-0.052,2.716,1.047c0.74,1.122,0.74,2.454-0.02,2.993V192.666z
		 M63.291,199.6c-0.664,0.751-2.084,0.552-3.122-0.476c-1.06-1.005-1.356-2.435-0.69-3.184c0.677-0.757,2.103-0.544,3.147,0.474
		c1.06,1.003,1.379,2.436,0.669,3.184L63.291,199.6z M72.344,203.625c-0.294,0.976-1.66,1.419-3.039,1.003
		c-1.374-0.429-2.273-1.568-1.991-2.555c0.281-0.984,1.657-1.445,3.042-1C71.731,201.496,72.63,202.63,72.344,203.625z
		 M82.291,204.368c0.035,1.026-1.133,1.879-2.575,1.896c-1.455,0.035-2.632-0.799-2.645-1.81c0-1.037,1.142-1.877,2.595-1.906
		c1.441-0.025,2.627,0.797,2.627,1.815L82.291,204.368z M91.541,202.755c0.173,1.001-0.831,2.03-2.265,2.306
		c-1.408,0.27-2.716-0.355-2.897-1.348c-0.173-1.026,0.85-2.057,2.258-2.323c1.437-0.255,2.724,0.351,2.905,1.368L91.541,202.755
		L91.541,202.755z"/>
</g>
</svg>
