<?xml version="1.0" encoding="utf-8"?>
<!-- Generator: Adobe Illustrator 16.0.0, SVG Export Plug-In . SVG Version: 6.00 Build 0)  -->
<!DOCTYPE svg PUBLIC "-//W3C//DTD SVG 1.1//EN" "http://www.w3.org/Graphics/SVG/1.1/DTD/svg11.dtd">
<svg version="1.1" id="Layer_1" xmlns="http://www.w3.org/2000/svg" xmlns:xlink="http://www.w3.org/1999/xlink" x="0px" y="0px"
	 width="245px" height="245px" viewBox="0 0 245 245" enable-background="new 0 0 245 245" xml:space="preserve">
<circle stroke="#000000" stroke-miterlimit="10" cx="122.872" cy="122.578" r="121.5"/>
<path fill="#FFFFFF" stroke="#000000" stroke-miterlimit="10" d="M344.583,75.853c38.474-0.126,75.19,26.439,69.854,58.345
	c-9.836,58.8-30.994,58.673-69.469,58.8c-38.472,0.126-69.746-25.994-69.853-58.342C275.01,102.307,306.111,75.979,344.583,75.853z"
	/>
<path fill="#FFFFFF" d="M123.85,167.644c-0.87-0.196-1.717-0.47-2.567-0.721l-0.641-0.194c-0.83-0.254-1.653-0.522-2.473-0.805
	l-0.34-0.123c-0.733-0.257-1.46-0.53-2.182-0.809l-0.611-0.24c-0.791-0.313-1.577-0.639-2.354-0.979l-0.47-0.208
	c-0.668-0.303-1.328-0.608-1.986-0.925l-0.575-0.275c-0.516-0.251-1.026-0.518-1.536-0.781c-0.341-0.18-0.688-0.35-1.025-0.536
	c-0.622-0.334-1.233-0.68-1.841-1.033l-0.621-0.347c-0.81-0.476-1.608-0.969-2.398-1.469l-0.646-0.432
	c-0.574-0.369-1.145-0.745-1.707-1.135l-0.55-0.386c-0.543-0.384-1.079-0.771-1.613-1.166l-0.714-0.54
	c-0.488-0.374-0.975-0.75-1.455-1.139l-0.649-0.521c-0.611-0.503-1.216-1.008-1.813-1.528l-0.198-0.167
	c-0.646-0.566-1.279-1.148-1.905-1.731l-0.536-0.517c-0.464-0.441-0.921-0.887-1.37-1.343l-0.536-0.535
	c-0.571-0.585-1.132-1.177-1.682-1.777l-0.082-0.088c-0.582-0.636-1.149-1.284-1.705-1.939l-0.446-0.53
	c-0.416-0.499-0.826-1.005-1.227-1.517l-0.45-0.559c-0.482-0.627-0.955-1.251-1.417-1.887c-12.777-17.43-17.368-41.467-7.155-61.208
	L65.32,89.04c-11.598,16.668-10.155,38.357-1.295,56.071c0.21,0.425,0.433,0.842,0.649,1.26l0.416,0.798l0.258,0.459l0.461,0.827
	c0.275,0.484,0.557,0.968,0.847,1.45l0.481,0.795c0.32,0.517,0.647,1.026,0.982,1.535l0.418,0.646
	c0.46,0.688,0.934,1.377,1.422,2.052L70,154.985l0.24,0.324c0.42,0.581,0.856,1.155,1.295,1.723l0.487,0.621
	c0.392,0.493,0.791,0.983,1.198,1.471l0.458,0.547c0.545,0.642,1.101,1.28,1.668,1.906l0.034,0.034l0.065,0.072
	c0.553,0.604,1.121,1.195,1.695,1.786l0.543,0.548c0.445,0.448,0.897,0.889,1.354,1.327l0.553,0.525
	c0.61,0.575,1.227,1.14,1.855,1.69l0.029,0.023l0.323,0.275c0.553,0.479,1.117,0.956,1.686,1.423l0.698,0.557
	c0.464,0.372,0.933,0.738,1.405,1.098l0.751,0.571c0.521,0.384,1.046,0.761,1.577,1.13l0.574,0.407l0.158,0.112
	c0.502,0.346,1.017,0.68,1.531,1.013l0.662,0.441c0.788,0.499,1.588,0.992,2.396,1.469l0.663,0.373
	c0.594,0.343,1.192,0.679,1.799,1.009c0.328,0.176,0.664,0.343,0.995,0.513c0.428,0.225,0.853,0.451,1.287,0.669l0.299,0.144
	l0.526,0.255c0.674,0.321,1.354,0.639,2.04,0.943l0.432,0.193c0.786,0.344,1.579,0.674,2.379,0.989l0.58,0.229
	c0.739,0.285,1.491,0.566,2.245,0.832l0.281,0.098c0.827,0.289,1.663,0.558,2.505,0.819l0.604,0.181
	c0.856,0.258,1.702,0.565,2.585,0.729c56.092,10.229,72.386-33.707,72.386-33.707C171.154,168.177,146.864,172.88,123.85,167.644z
	 M103.644,122.182c1.258,1.801,2.65,3.944,4.317,5.391c0.604,0.666,1.236,1.315,1.883,1.953l0.496,0.489
	c0.626,0.608,1.264,1.205,1.923,1.786l0.077,0.067l0.02,0.019c0.729,0.64,1.48,1.253,2.244,1.858l0.51,0.397
	c0.767,0.588,1.548,1.164,2.348,1.716l0.068,0.051c0.354,0.244,0.714,0.472,1.072,0.707l0.508,0.335
	c0.571,0.367,1.152,0.725,1.741,1.068l0.246,0.143c0.508,0.292,1.022,0.58,1.538,0.86l0.548,0.284
	c0.356,0.187,0.713,0.377,1.077,0.559l0.163,0.072c0.738,0.364,1.483,0.716,2.246,1.047l0.496,0.204
	c0.608,0.259,1.224,0.511,1.84,0.746l0.789,0.29c0.561,0.208,1.124,0.396,1.691,0.588l0.765,0.244
	c0.806,0.251,1.604,0.567,2.443,0.707c43.309,7.175,53.306-26.17,53.306-26.17c-9.012,12.979-26.466,19.174-45.091,14.339
	c-0.828-0.218-1.644-0.454-2.454-0.709l-0.736-0.239c-0.576-0.186-1.147-0.384-1.716-0.591l-0.773-0.288
	c-0.622-0.239-1.237-0.485-1.847-0.744l-0.498-0.211c-0.765-0.332-1.518-0.684-2.259-1.05c-0.382-0.187-0.758-0.383-1.134-0.576
	l-0.653-0.337c-0.482-0.261-0.961-0.532-1.434-0.811l-0.343-0.193c-0.587-0.342-1.164-0.695-1.735-1.061l-0.523-0.349
	c-0.377-0.244-0.754-0.494-1.124-0.744c-0.798-0.551-1.574-1.127-2.342-1.711l-0.526-0.416
	c-8.152-6.435-14.614-15.233-17.687-25.208c-3.22-10.343-2.525-21.955,3.053-31.38l-6.854,9.675
	c-8.389,12.07-7.932,28.229-1.39,40.995C101.03,118.129,102.265,120.207,103.644,122.182L103.644,122.182z M149.291,107.25
	c0.356,0.131,0.713,0.249,1.074,0.372l0.475,0.15c0.509,0.16,1.017,0.346,1.543,0.446c23.912,4.621,30.399-12.271,32.126-14.758
	c-5.683,8.181-15.23,10.144-26.946,7.3c-0.925-0.224-1.943-0.559-2.835-0.875c-1.144-0.408-2.271-0.873-3.366-1.397
	c-2.08-1-4.063-2.212-5.901-3.601c-10.483-7.955-16.996-23.129-10.155-35.486l-3.701,5.102c-4.945,7.277-5.431,16.314-1.999,24.351
	C133.223,97.384,140.638,104.076,149.291,107.25L149.291,107.25z"/>
</svg>
