<?xml version="1.0" encoding="utf-8"?>
<!-- Generator: Adobe Illustrator 16.0.0, SVG Export Plug-In . SVG Version: 6.00 Build 0)  -->
<!DOCTYPE svg PUBLIC "-//W3C//DTD SVG 1.1//EN" "http://www.w3.org/Graphics/SVG/1.1/DTD/svg11.dtd">
<svg version="1.1" id="Layer_1" xmlns="http://www.w3.org/2000/svg" xmlns:xlink="http://www.w3.org/1999/xlink" x="0px" y="0px"
	 width="245px" height="245px" viewBox="0 0 245 245" enable-background="new 0 0 245 245" xml:space="preserve">
<circle stroke="#000000" stroke-miterlimit="10" cx="122.872" cy="122.578" r="121.5"/>
<path fill="#FFFFFF" stroke="#000000" stroke-miterlimit="10" d="M122.588,53.334c38.362-0.126,74.991,32.23,69.695,71.054
	c-9.766,71.549-30.841,64.767-69.204,64.892c-10.644,0.035-15.585-6.611-29.79-0.136c-23.763,10.833-39.832-35.855-39.927-64.299
	C53.234,85.478,84.228,53.46,122.588,53.334z"/>
<path id="plain" d="M183.5,50.942h-122c-5.764-0.059-10.487,4.56-10.558,10.323v122.493c0.084,5.756,4.803,10.359,10.558,10.301h122
	c5.764,0.045,10.48-4.572,10.559-10.336V61.23C193.955,55.486,189.244,50.896,183.5,50.942z M93.373,172.943H72.128v-68.356h21.245
	V172.943z M82.814,95.273c-6.803,0.006-12.323-5.503-12.329-12.306c-0.007-6.803,5.502-12.323,12.305-12.329
	c6.803-0.007,12.323,5.503,12.33,12.306c0,0.004,0,0.008,0,0.012c-0.014,6.803-5.539,12.307-12.341,12.294c-0.007,0-0.016,0-0.023,0
	L82.814,95.273z M172.943,172.943h-21.246v-33.258c0-7.918-0.141-18.113-11.037-18.113c-10.898,0-12.752,8.634-12.752,17.597v33.773
	h-21.209v-68.356h20.364v9.385h0.283c2.838-5.373,9.76-11.039,20.094-11.039c21.516-0.047,25.504,14.112,25.504,32.471V172.943z"/>
</svg>
