<?xml version="1.0" encoding="utf-8"?>
<!-- Generator: Adobe Illustrator 16.0.0, SVG Export Plug-In . SVG Version: 6.00 Build 0)  -->
<!DOCTYPE svg PUBLIC "-//W3C//DTD SVG 1.1//EN" "http://www.w3.org/Graphics/SVG/1.1/DTD/svg11.dtd">
<svg version="1.1" id="Layer_1" xmlns="http://www.w3.org/2000/svg" xmlns:xlink="http://www.w3.org/1999/xlink" x="0px" y="0px"
	 width="317px" height="106.667px" viewBox="0 0 317 106.667" enable-background="new 0 0 317 106.667" xml:space="preserve">
<g>
	<path d="M1.266,35.728c8.838,0.82,17.772,1.082,26.492,2.585c13.93,2.401,27.807,5.259,41.547,8.584
		c24.37,5.896,48.629,12.255,72.917,18.489c8.641,2.218,17.437,3.326,26.299,3.976c1.681,0.122,3.472-0.168,5.104-0.642
		c10.247-2.977,19.296-8.412,28.204-14.074c7.883-5.011,15.646-10.21,23.467-15.318c0.679-0.443,1.399-0.818,2.103-1.226
		c0.119,0.149,0.237,0.298,0.355,0.447c-1.699,1.481-3.289,3.119-5.119,4.418c-11.295,8.021-22.644,15.964-33.974,23.935
		c-0.601,0.422-1.195,0.852-1.671,1.648c43.025-5.104,85.582-12.807,128.333-19.936c-1.933,0.799-3.847,1.645-5.802,2.384
		c-1.983,0.75-4.006,1.401-6.017,2.084c-2.042,0.694-4.089,1.375-6.573,2.208c4.238,1.297,8.016,2.455,12.265,3.754
		c-4.63-0.512-8.729-1.076-12.845-1.394c-4.4-0.34-8.687,0.399-12.974,1.509c-10.517,2.721-21.093,5.209-31.644,7.797
		c-0.541,0.133-1.065,0.33-2.021,0.629c1.139,0.633,1.877,1.119,2.676,1.473c3.883,1.715,7.824,3.311,11.67,5.107
		c3.957,1.854,7.84,3.869,11.728,5.867c0.851,0.438,1.662,1.02,2.341,1.688c0.368,0.362,0.418,1.05,0.612,1.591
		c-0.509-0.082-1.06-0.064-1.517-0.262c-5.371-2.307-10.623-4.943-16.113-6.912c-10.297-3.689-20.983-5.688-31.942-5.895
		c-6.591-0.123-13.03,0.99-19.493,2.355c-6.718,1.419-13.599,2.102-20.426,2.959c-9.813,1.23-19.637,2.545-29.557,2.167
		c-4.868-0.187-9.72-0.769-14.995-1.205c0.782,1.103,1.32,2.188,2.146,2.97c4.214,3.981,8.454,7.94,12.781,11.801
		c4.041,3.604,8.216,7.055,12.297,10.612c1.011,0.882,1.886,1.918,2.707,3.155c-0.706-0.393-1.478-0.698-2.104-1.189
		c-3.699-2.906-7.534-5.67-11.01-8.826c-11.163-10.137-24.079-16.994-38.324-21.766c-16.897-5.658-34.119-9.76-51.775-12.023
		c-16.14-2.068-32.36-2.729-48.609-1.912c-7.194,0.363-14.362,1.263-21.542,1.918C1.266,52.751,1.266,44.24,1.266,35.728z"/>
</g>
<text transform="matrix(0.9834 0.1816 -0.1816 0.9834 4.0591 32.9883)" font-family="'Luna'" font-size="24">E</text>
<text transform="matrix(0.9785 0.2061 -0.2061 0.9785 25.0371 36.0332)" font-family="'Luna'" font-size="24">liz</text>
<text transform="matrix(0.9768 0.214 -0.214 0.9768 60.376 44.3408)" font-family="'Luna'" font-size="23.9992">abe</text>
<text transform="matrix(0.9655 0.2604 -0.2604 0.9655 110.3789 53.8433)" font-family="'Luna'" font-size="24">th</text>
<text transform="matrix(0.9711 0.2387 -0.2387 0.9711 14.9414 90.5132)" font-family="'Luna'" font-size="36">LV</text>
<g>
	<path d="M152.251,62.311c-0.031,0-0.063,0-0.094,0c-0.109-0.048-0.184-0.134-0.233-0.237c-0.049-0.104-0.097-0.209-0.128-0.32
		c-0.155-0.543-0.181-1.102-0.137-1.662c0.015-0.182,0.043-0.362,0.066-0.545c-0.009,0.011-0.02,0.021-0.028,0.033
		c-0.33,0.455-0.71,0.859-1.14,1.221c-0.293,0.244-0.601,0.471-0.95,0.632c-0.164,0.075-0.333,0.138-0.519,0.13
		c-0.153-0.008-0.248-0.096-0.263-0.248c-0.005-0.05-0.004-0.102,0.003-0.15c0.038-0.252,0.149-0.478,0.281-0.689
		c0.448-0.727,1.031-1.326,1.716-1.83c0.055-0.04,0.111-0.077,0.167-0.116c-0.082,0.007-0.158,0.024-0.236,0.038
		c-0.469,0.08-0.942,0.084-1.415,0.033c-0.322-0.035-0.639-0.092-0.94-0.217c-0.169-0.07-0.335-0.148-0.414-0.332
		c0-0.027,0-0.055,0-0.082c0.04-0.1,0.114-0.17,0.208-0.213c0.117-0.053,0.237-0.105,0.36-0.137
		c0.585-0.146,1.178-0.145,1.771-0.066c0.127,0.016,0.253,0.041,0.381,0.063c-0.001-0.006-0.001-0.01-0.003-0.012
		c-0.01-0.01-0.02-0.02-0.03-0.027c-0.412-0.354-0.779-0.748-1.096-1.188c-0.195-0.27-0.374-0.551-0.491-0.865
		c-0.057-0.152-0.102-0.309-0.079-0.475c0.019-0.135,0.105-0.223,0.241-0.229c0.076-0.003,0.154,0.004,0.227,0.021
		c0.288,0.07,0.535,0.226,0.772,0.396c0.56,0.403,1.037,0.892,1.448,1.445c0.014,0.019,0.027,0.034,0.041,0.054
		c0-0.041-0.008-0.076-0.016-0.113c-0.091-0.457-0.113-0.918-0.079-1.383c0.024-0.328,0.069-0.65,0.186-0.959
		c0.064-0.171,0.136-0.34,0.316-0.424c0.032,0,0.063,0,0.094,0c0.126,0.061,0.202,0.168,0.258,0.291
		c0.037,0.082,0.072,0.166,0.096,0.252c0.188,0.672,0.198,1.354,0.098,2.041c-0.019,0.133-0.052,0.264-0.08,0.402
		c0.008-0.012,0.013-0.018,0.018-0.023c0.432-0.638,0.961-1.182,1.582-1.639c0.24-0.178,0.491-0.336,0.773-0.438
		c0.121-0.043,0.243-0.074,0.373-0.066c0.131,0.01,0.224,0.076,0.245,0.197c0.014,0.078,0.013,0.16,0,0.237
		c-0.041,0.24-0.151,0.456-0.278,0.661c-0.456,0.732-1.045,1.339-1.743,1.844c-0.008,0.006-0.014,0.012-0.023,0.02
		c0.127-0.02,0.249-0.043,0.37-0.059c0.421-0.053,0.843-0.051,1.264,0.002c0.306,0.035,0.608,0.092,0.894,0.209
		c0.169,0.07,0.334,0.148,0.417,0.33c0,0.03,0,0.062,0,0.092c-0.059,0.121-0.164,0.191-0.281,0.244
		c-0.053,0.025-0.108,0.047-0.164,0.064c-0.289,0.093-0.588,0.129-0.889,0.145c-0.517,0.024-1.028-0.015-1.53-0.147
		c-0.106-0.029-0.21-0.065-0.325-0.104c0.017,0.014,0.026,0.021,0.035,0.027c0.568,0.414,1.054,0.909,1.468,1.477
		c0.197,0.27,0.375,0.549,0.495,0.862c0.055,0.146,0.098,0.294,0.087,0.451c-0.012,0.169-0.111,0.269-0.281,0.267
		c-0.069,0-0.14-0.01-0.208-0.027c-0.281-0.073-0.523-0.227-0.756-0.393c-0.544-0.394-1.01-0.865-1.413-1.4
		c-0.015-0.02-0.032-0.039-0.059-0.072c0.007,0.042,0.011,0.063,0.015,0.087c0.078,0.479,0.087,0.958,0.033,1.438
		c-0.029,0.256-0.073,0.508-0.163,0.748C152.503,62.052,152.43,62.221,152.251,62.311z M152.17,57.189
		c-0.477,0-0.907,0.434-0.906,0.911c0.001,0.476,0.435,0.911,0.909,0.911c0.475,0,0.914-0.441,0.912-0.918
		C153.082,57.621,152.646,57.187,152.17,57.189z"/>
</g>
<g>
	<path d="M150.541,34.656c-0.032,0-0.063,0-0.096,0c-0.112-0.049-0.188-0.137-0.239-0.243c-0.05-0.105-0.1-0.214-0.131-0.328
		c-0.159-0.557-0.186-1.128-0.141-1.702c0.016-0.187,0.045-0.372,0.068-0.559c-0.01,0.011-0.021,0.023-0.029,0.036
		c-0.337,0.464-0.727,0.879-1.167,1.248c-0.3,0.251-0.614,0.482-0.972,0.647c-0.168,0.078-0.341,0.141-0.531,0.132
		c-0.157-0.008-0.254-0.098-0.27-0.253c-0.005-0.051-0.004-0.104,0.004-0.155c0.039-0.258,0.152-0.487,0.287-0.706
		c0.459-0.743,1.056-1.357,1.757-1.873c0.056-0.041,0.114-0.079,0.171-0.119c-0.083,0.007-0.161,0.025-0.241,0.039
		c-0.48,0.082-0.964,0.086-1.448,0.033c-0.329-0.036-0.654-0.093-0.962-0.222c-0.173-0.071-0.343-0.151-0.424-0.338
		c0-0.029,0-0.057,0-0.084c0.041-0.102,0.116-0.174,0.213-0.218c0.12-0.054,0.242-0.108,0.369-0.141
		c0.599-0.149,1.205-0.146,1.813-0.068c0.13,0.017,0.259,0.043,0.39,0.064c-0.002-0.006-0.002-0.01-0.004-0.012
		c-0.01-0.01-0.021-0.019-0.031-0.029c-0.422-0.361-0.797-0.765-1.121-1.215c-0.2-0.276-0.383-0.563-0.503-0.885
		c-0.058-0.157-0.104-0.316-0.08-0.486c0.019-0.139,0.107-0.227,0.247-0.233c0.077-0.003,0.157,0.002,0.231,0.021
		c0.295,0.072,0.548,0.231,0.79,0.406c0.573,0.413,1.062,0.913,1.482,1.479c0.014,0.018,0.027,0.036,0.041,0.054
		c0-0.042-0.009-0.078-0.016-0.115c-0.094-0.469-0.116-0.941-0.081-1.417c0.024-0.334,0.071-0.665,0.189-0.981
		c0.065-0.175,0.14-0.347,0.324-0.434c0.032,0,0.064,0,0.096,0c0.13,0.062,0.207,0.173,0.265,0.299
		c0.038,0.083,0.073,0.169,0.098,0.257c0.193,0.688,0.203,1.387,0.101,2.089c-0.02,0.136-0.053,0.27-0.081,0.411
		c0.008-0.011,0.014-0.017,0.018-0.023c0.442-0.653,0.984-1.21,1.619-1.678c0.245-0.181,0.502-0.344,0.792-0.448
		c0.123-0.044,0.248-0.077,0.381-0.067c0.135,0.01,0.229,0.078,0.251,0.202c0.014,0.079,0.014,0.164,0,0.244
		c-0.042,0.247-0.154,0.467-0.285,0.677c-0.466,0.75-1.069,1.37-1.783,1.887c-0.008,0.005-0.015,0.012-0.024,0.021
		c0.13-0.021,0.254-0.044,0.379-0.06c0.431-0.054,0.863-0.051,1.294,0.001c0.313,0.037,0.622,0.094,0.915,0.215
		c0.173,0.071,0.342,0.151,0.427,0.336c0,0.032,0,0.063,0,0.095c-0.061,0.125-0.168,0.195-0.287,0.25
		c-0.055,0.025-0.111,0.046-0.168,0.065c-0.296,0.095-0.602,0.132-0.91,0.147c-0.529,0.025-1.053-0.014-1.566-0.151
		c-0.108-0.03-0.215-0.069-0.333-0.106c0.019,0.014,0.027,0.022,0.036,0.029c0.582,0.423,1.079,0.93,1.503,1.511
		c0.201,0.275,0.384,0.562,0.506,0.882c0.057,0.149,0.101,0.301,0.09,0.462c-0.012,0.173-0.114,0.274-0.288,0.273
		c-0.07,0-0.144-0.01-0.212-0.029c-0.288-0.075-0.536-0.231-0.774-0.402c-0.557-0.402-1.033-0.885-1.446-1.432
		c-0.016-0.021-0.032-0.041-0.06-0.075c0.008,0.042,0.012,0.065,0.016,0.089c0.079,0.489,0.089,0.98,0.033,1.473
		c-0.029,0.261-0.074,0.52-0.166,0.766C150.799,34.39,150.724,34.563,150.541,34.656z M150.458,29.412
		c-0.488,0.001-0.929,0.443-0.929,0.933c0.002,0.486,0.445,0.932,0.932,0.932c0.485,0,0.935-0.452,0.933-0.938
		C151.392,29.853,150.945,29.411,150.458,29.412z"/>
</g>
<g>
	<path d="M309.612,58.083c-0.023,0-0.047,0-0.071,0c-0.084-0.037-0.141-0.103-0.179-0.182c-0.037-0.078-0.074-0.16-0.099-0.244
		c-0.119-0.416-0.139-0.844-0.104-1.271c0.011-0.139,0.033-0.278,0.05-0.418c-0.007,0.009-0.015,0.018-0.021,0.027
		c-0.253,0.346-0.543,0.656-0.871,0.932c-0.226,0.189-0.459,0.359-0.728,0.484c-0.126,0.057-0.255,0.104-0.396,0.098
		c-0.117-0.006-0.19-0.072-0.202-0.188c-0.004-0.038-0.003-0.077,0.003-0.116c0.029-0.191,0.114-0.363,0.215-0.527
		c0.343-0.555,0.789-1.014,1.313-1.398c0.042-0.031,0.085-0.059,0.128-0.089c-0.063,0.005-0.12,0.019-0.182,0.028
		c-0.357,0.063-0.72,0.066-1.082,0.025c-0.245-0.025-0.487-0.068-0.719-0.166c-0.129-0.053-0.256-0.113-0.316-0.252
		c0-0.021,0-0.043,0-0.063c0.03-0.076,0.088-0.13,0.159-0.163c0.09-0.041,0.182-0.081,0.275-0.105
		c0.447-0.111,0.899-0.109,1.354-0.051c0.098,0.012,0.193,0.032,0.291,0.049c-0.001-0.005-0.001-0.008-0.003-0.01
		c-0.008-0.008-0.016-0.014-0.022-0.021c-0.314-0.27-0.597-0.571-0.838-0.908c-0.149-0.207-0.286-0.42-0.375-0.661
		c-0.044-0.117-0.078-0.236-0.062-0.363c0.016-0.104,0.08-0.169,0.186-0.174c0.058-0.002,0.116,0.002,0.173,0.016
		c0.221,0.054,0.409,0.173,0.591,0.303c0.429,0.309,0.793,0.683,1.106,1.105c0.011,0.014,0.021,0.027,0.031,0.041
		c0-0.031-0.007-0.058-0.013-0.085c-0.069-0.35-0.086-0.704-0.062-1.059c0.021-0.25,0.055-0.497,0.144-0.733
		c0.049-0.13,0.104-0.259,0.242-0.324c0.022,0,0.048,0,0.07,0c0.098,0.046,0.155,0.129,0.197,0.223
		c0.028,0.062,0.055,0.126,0.073,0.192c0.145,0.514,0.151,1.036,0.075,1.561c-0.016,0.102-0.039,0.202-0.062,0.308
		c0.006-0.008,0.01-0.013,0.014-0.017c0.33-0.488,0.734-0.905,1.21-1.254c0.184-0.135,0.376-0.257,0.592-0.334
		c0.092-0.033,0.186-0.058,0.285-0.05c0.099,0.008,0.171,0.058,0.188,0.15c0.01,0.06,0.01,0.123,0,0.182
		c-0.032,0.184-0.115,0.349-0.213,0.505c-0.349,0.561-0.8,1.024-1.333,1.411c-0.006,0.004-0.011,0.008-0.018,0.016
		c0.097-0.016,0.188-0.033,0.281-0.045c0.322-0.041,0.646-0.038,0.969,0c0.232,0.027,0.465,0.07,0.683,0.16
		c0.13,0.054,0.256,0.113,0.319,0.252c0,0.023,0,0.047,0,0.07c-0.045,0.094-0.125,0.146-0.215,0.188
		c-0.041,0.02-0.084,0.035-0.125,0.049c-0.223,0.07-0.45,0.1-0.682,0.109c-0.395,0.02-0.786-0.01-1.17-0.112
		c-0.081-0.022-0.16-0.052-0.249-0.08c0.014,0.011,0.021,0.017,0.027,0.021c0.435,0.316,0.807,0.695,1.123,1.129
		c0.149,0.207,0.286,0.42,0.378,0.66c0.042,0.11,0.075,0.226,0.065,0.346c-0.009,0.129-0.085,0.205-0.215,0.203
		c-0.053,0-0.106-0.008-0.158-0.021c-0.215-0.058-0.399-0.173-0.577-0.301c-0.416-0.3-0.772-0.661-1.081-1.07
		c-0.013-0.016-0.024-0.03-0.046-0.057c0.007,0.032,0.01,0.049,0.013,0.065c0.06,0.366,0.065,0.733,0.024,1.102
		c-0.021,0.193-0.056,0.388-0.125,0.572C309.806,57.886,309.749,58.015,309.612,58.083z M309.551,54.166
		c-0.365,0.002-0.693,0.332-0.692,0.697c0.001,0.363,0.332,0.697,0.694,0.697c0.363,0,0.698-0.337,0.697-0.701
		C310.248,54.496,309.915,54.166,309.551,54.166z"/>
</g>
<g>
	<path d="M179.768,98.103c-0.054,0-0.105,0-0.158,0c-0.186-0.081-0.312-0.227-0.395-0.4c-0.082-0.174-0.163-0.354-0.216-0.539
		c-0.263-0.918-0.306-1.857-0.229-2.803c0.024-0.309,0.072-0.613,0.111-0.921c-0.016,0.019-0.033,0.038-0.048,0.058
		c-0.556,0.767-1.198,1.449-1.921,2.058c-0.495,0.413-1.014,0.794-1.602,1.065c-0.276,0.127-0.562,0.231-0.875,0.219
		c-0.259-0.014-0.418-0.162-0.443-0.418c-0.008-0.084-0.008-0.172,0.006-0.256c0.064-0.424,0.252-0.804,0.475-1.162
		c0.754-1.226,1.738-2.235,2.893-3.086c0.092-0.067,0.188-0.131,0.281-0.195c-0.138,0.012-0.267,0.043-0.397,0.064
		c-0.791,0.135-1.588,0.141-2.386,0.055c-0.541-0.059-1.077-0.153-1.584-0.364c-0.284-0.119-0.564-0.251-0.697-0.562
		c0-0.045,0-0.092,0-0.138c0.066-0.168,0.191-0.286,0.352-0.358c0.197-0.09,0.398-0.178,0.607-0.23
		c0.986-0.247,1.984-0.242,2.986-0.111c0.216,0.026,0.428,0.07,0.643,0.105c-0.002-0.012-0.002-0.018-0.006-0.021
		c-0.018-0.017-0.034-0.031-0.051-0.047c-0.695-0.595-1.313-1.26-1.848-2c-0.33-0.455-0.631-0.928-0.828-1.459
		c-0.096-0.258-0.17-0.52-0.133-0.801c0.031-0.229,0.178-0.374,0.407-0.384c0.127-0.005,0.259,0.005,0.382,0.036
		c0.486,0.117,0.902,0.38,1.303,0.668c0.943,0.681,1.748,1.504,2.44,2.438c0.022,0.031,0.046,0.059,0.067,0.09
		c0-0.068-0.014-0.129-0.025-0.189c-0.152-0.771-0.191-1.551-0.133-2.333c0.041-0.552,0.117-1.095,0.313-1.615
		c0.107-0.288,0.229-0.573,0.533-0.715c0.055,0,0.106,0,0.159,0c0.213,0.103,0.341,0.282,0.435,0.489
		c0.063,0.14,0.121,0.281,0.162,0.426c0.317,1.133,0.334,2.283,0.166,3.441c-0.033,0.225-0.089,0.443-0.136,0.678
		c0.015-0.018,0.022-0.028,0.03-0.039c0.729-1.075,1.619-1.992,2.666-2.764c0.402-0.297,0.828-0.565,1.304-0.736
		c0.203-0.072,0.41-0.125,0.628-0.112c0.223,0.017,0.379,0.129,0.415,0.333c0.022,0.133,0.021,0.27,0,0.4
		c-0.069,0.406-0.256,0.771-0.471,1.115c-0.769,1.234-1.763,2.258-2.938,3.106c-0.014,0.011-0.023,0.021-0.039,0.036
		c0.213-0.036,0.418-0.072,0.623-0.1c0.711-0.088,1.422-0.084,2.133,0.002c0.516,0.062,1.023,0.154,1.506,0.354
		c0.285,0.119,0.563,0.251,0.703,0.556c0,0.053,0,0.104,0,0.156c-0.099,0.204-0.275,0.322-0.474,0.411
		c-0.089,0.043-0.183,0.077-0.276,0.108c-0.487,0.156-0.992,0.218-1.498,0.244c-0.873,0.041-1.733-0.024-2.58-0.25
		c-0.18-0.051-0.354-0.113-0.549-0.176c0.029,0.023,0.045,0.036,0.061,0.047c0.958,0.697,1.777,1.532,2.477,2.489
		c0.33,0.452,0.631,0.925,0.832,1.453c0.094,0.246,0.166,0.496,0.148,0.761c-0.02,0.285-0.188,0.451-0.475,0.45
		c-0.119,0-0.236-0.017-0.352-0.048c-0.473-0.124-0.882-0.381-1.273-0.662c-0.918-0.662-1.703-1.457-2.383-2.359
		c-0.025-0.033-0.054-0.065-0.1-0.123c0.013,0.07,0.02,0.106,0.025,0.146c0.131,0.808,0.146,1.614,0.057,2.428
		c-0.049,0.431-0.123,0.854-0.273,1.261C180.189,97.667,180.066,97.953,179.768,98.103z M179.629,89.466
		c-0.804,0-1.529,0.729-1.527,1.537c0.002,0.799,0.732,1.535,1.532,1.535c0.802,0,1.541-0.744,1.537-1.545
		S180.432,89.462,179.629,89.466z"/>
</g>
<g>
	<path d="M85.999,80.1c-0.053,0-0.105,0-0.158,0c-0.185-0.081-0.311-0.226-0.394-0.399c-0.082-0.175-0.163-0.354-0.216-0.541
		c-0.262-0.916-0.305-1.857-0.23-2.802c0.025-0.31,0.073-0.612,0.112-0.921c-0.016,0.02-0.033,0.038-0.048,0.059
		c-0.556,0.766-1.198,1.448-1.921,2.057c-0.495,0.412-1.013,0.794-1.601,1.064c-0.277,0.129-0.562,0.232-0.875,0.219
		c-0.259-0.012-0.418-0.16-0.444-0.418c-0.008-0.084-0.007-0.17,0.006-0.254c0.064-0.426,0.252-0.805,0.474-1.164
		c0.755-1.225,1.739-2.234,2.893-3.084c0.092-0.068,0.188-0.131,0.282-0.197c-0.138,0.013-0.267,0.044-0.398,0.064
		c-0.791,0.135-1.588,0.143-2.385,0.057c-0.542-0.061-1.078-0.154-1.584-0.365c-0.285-0.119-0.565-0.251-0.698-0.561
		c0-0.047,0-0.093,0-0.139c0.067-0.168,0.192-0.287,0.351-0.359c0.198-0.088,0.399-0.178,0.608-0.229
		c0.986-0.247,1.985-0.242,2.987-0.11c0.215,0.025,0.427,0.069,0.642,0.104c-0.002-0.011-0.002-0.017-0.006-0.021
		c-0.017-0.018-0.034-0.031-0.051-0.049c-0.695-0.594-1.313-1.259-1.848-2c-0.329-0.453-0.63-0.927-0.827-1.459
		c-0.096-0.257-0.171-0.52-0.133-0.8c0.031-0.228,0.178-0.374,0.407-0.384c0.127-0.006,0.259,0.005,0.382,0.035
		c0.486,0.119,0.902,0.381,1.302,0.668c0.944,0.682,1.748,1.504,2.441,2.438c0.023,0.031,0.046,0.06,0.068,0.091
		c0-0.068-0.014-0.131-0.026-0.191c-0.153-0.77-0.191-1.549-0.133-2.332c0.041-0.553,0.117-1.096,0.313-1.615
		c0.107-0.288,0.229-0.572,0.533-0.715c0.054,0,0.106,0,0.159,0c0.213,0.104,0.341,0.283,0.435,0.49
		c0.063,0.139,0.121,0.279,0.161,0.425c0.318,1.133,0.334,2.284,0.166,3.44c-0.032,0.225-0.088,0.444-0.135,0.68
		c0.015-0.02,0.022-0.029,0.03-0.041c0.729-1.074,1.62-1.991,2.666-2.762c0.403-0.299,0.828-0.566,1.304-0.738
		c0.203-0.071,0.41-0.125,0.628-0.111c0.222,0.018,0.379,0.129,0.415,0.333c0.022,0.132,0.021,0.271,0,0.401
		c-0.069,0.404-0.256,0.77-0.471,1.115c-0.768,1.233-1.763,2.256-2.938,3.105c-0.014,0.01-0.024,0.021-0.04,0.036
		c0.214-0.036,0.419-0.072,0.624-0.099c0.711-0.09,1.421-0.086,2.133,0.002c0.515,0.061,1.023,0.153,1.506,0.354
		c0.285,0.119,0.563,0.251,0.703,0.557c0,0.053,0,0.104,0,0.155c-0.099,0.204-0.276,0.322-0.474,0.411
		c-0.089,0.043-0.183,0.077-0.277,0.109c-0.487,0.156-0.991,0.217-1.498,0.242c-0.872,0.041-1.733-0.023-2.579-0.25
		c-0.18-0.05-0.354-0.111-0.549-0.175c0.029,0.022,0.044,0.036,0.06,0.046c0.958,0.698,1.777,1.533,2.476,2.49
		c0.331,0.452,0.631,0.926,0.833,1.453c0.093,0.246,0.165,0.496,0.148,0.761c-0.02,0.285-0.188,0.451-0.475,0.45
		c-0.118,0-0.236-0.018-0.351-0.048c-0.473-0.124-0.882-0.382-1.274-0.662c-0.917-0.662-1.702-1.457-2.382-2.358
		c-0.026-0.033-0.054-0.066-0.1-0.125c0.013,0.071,0.02,0.107,0.026,0.146c0.131,0.809,0.146,1.615,0.056,2.428
		c-0.049,0.43-0.123,0.854-0.274,1.262C86.423,79.664,86.3,79.949,85.999,80.1z M85.861,71.464c-0.804,0-1.529,0.729-1.528,1.535
		c0.002,0.801,0.733,1.537,1.533,1.537c0.802,0,1.541-0.744,1.537-1.547C87.399,72.19,86.664,71.46,85.861,71.464z"/>
</g>
</svg>
