<?xml version="1.0" encoding="utf-8"?>
<!-- Generator: Adobe Illustrator 16.0.0, SVG Export Plug-In . SVG Version: 6.00 Build 0)  -->
<!DOCTYPE svg PUBLIC "-//W3C//DTD SVG 1.1//EN" "http://www.w3.org/Graphics/SVG/1.1/DTD/svg11.dtd">
<svg version="1.1" id="Layer_1" xmlns="http://www.w3.org/2000/svg" xmlns:xlink="http://www.w3.org/1999/xlink" x="0px" y="0px"
	 width="245px" height="245px" viewBox="0 0 245 245" enable-background="new 0 0 245 245" xml:space="preserve">
<circle stroke="#000000" stroke-miterlimit="10" cx="122.872" cy="122.578" r="121.5"/>
<path fill="#FFFFFF" stroke="#000000" stroke-miterlimit="10" d="M331.679,57.88c38.362-0.126,74.991,32.23,69.695,71.054
	c-9.766,71.549-30.841,64.767-69.204,64.892c-10.644,0.035-15.586-6.611-29.79-0.136c-23.763,10.833-39.832-35.855-39.927-64.299
	C262.325,90.023,293.318,58.006,331.679,57.88z"/>
<path id="original-wordmark" fill="#FFFFFF" d="M14.922,78.254h215.156v75.844H122.5v12.648H74.68v-12.648H14.922V78.254z
	 M26.877,141.466h23.91v-37.931h11.956v37.931h11.955V90.903h-47.82V141.466z M86.635,90.903v63.194h23.91v-12.632h23.91V90.903
	H86.635z M110.545,103.553H122.5v25.263h-11.955V103.553z M146.41,90.903v50.563h23.91v-37.931h11.955v37.931h11.955v-37.931h11.955
	v37.931h11.955V90.903H146.41z"/>
</svg>
