<?xml version="1.0" encoding="utf-8"?>
<!-- Generator: Adobe Illustrator 16.0.0, SVG Export Plug-In . SVG Version: 6.00 Build 0)  -->
<!DOCTYPE svg PUBLIC "-//W3C//DTD SVG 1.1//EN" "http://www.w3.org/Graphics/SVG/1.1/DTD/svg11.dtd">
<svg version="1.1" id="Layer_1" xmlns="http://www.w3.org/2000/svg" xmlns:xlink="http://www.w3.org/1999/xlink" x="0px" y="0px"
	 width="245px" height="245px" viewBox="0 0 245 245" enable-background="new 0 0 245 245" xml:space="preserve">
<circle stroke="#000000" stroke-miterlimit="10" cx="122.872" cy="122.578" r="121.5"/>
<path fill="#FFFFFF" stroke="#000000" stroke-miterlimit="10" d="M352.971,61.189c54.197-0.179,105.869,22.769,98.299,50.417
	c-13.963,50.954-43.719,46.175-97.916,46.353c-15.037,0.049-21.914-4.265-42.085-0.029c-43.032,9.035-56.188-25.432-56.257-45.678
	C254.921,84.229,298.781,61.367,352.971,61.189z"/>
<path fill="#FFFFFF" d="M11.019,91.658c0,1.248,0.368,2.072,0.574,2.873c1.343,5.208,4.228,9.678,7.652,13.755
	c4.876,5.811,10.848,10.489,16.966,14.887c5.306,3.814,10.721,7.544,16.048,11.329c0.915,0.651,1.779,1.399,2.772,2.196
	c-0.854,0.463-1.565,0.868-2.303,1.243c-7.031,3.566-13.795,7.563-20.03,12.406c-3.758,2.919-7.391,6.021-9.958,10.076
	c-4.129,6.521-5.59,13.468-2.512,20.885c0.898,2.167,2.269,4.039,4.203,5.422c0.627,0.447,1.33,0.891,2.063,1.065
	c1.879,0.441,3.793,0.731,5.695,1.081l5.386-0.003c5.957-0.531,11.378-2.571,16.277-5.953c7.658-5.284,12.817-12.371,15.035-21.464
	c1.613-6.61,1.678-13.227-0.222-19.806c-0.177-0.611-0.398-1.209-0.629-1.802c-0.231-0.591-0.503-1.167-0.822-1.902l12.21-7.021
	l0.183,0.155c-0.221,0.727-0.458,1.451-0.659,2.184c-1.451,5.301-2.415,10.691-2.069,16.191c0.37,5.859,2.004,11.345,5.437,16.241
	c2.773,3.961,9.383,4.108,12.331,0.134c1.045-1.411,2.06-2.888,2.821-4.463c1.991-4.111,3.834-8.296,5.736-12.451l0.333-0.759
	c-0.138,1.968-0.297,3.694-0.37,5.426c-0.114,2.699,0.043,5.385,0.967,7.954c0.791,2.198,2.135,3.842,4.653,4.13
	c1.722,0.198,3.096-0.591,4.361-1.591c1.978-1.561,3.585-3.488,4.779-5.681c3.375-6.199,6.842-12.36,9.902-18.717
	c3.311-6.873,6.205-13.949,9.278-20.94l0.509-1.24c0.727,2.854,1.232,5.648,2.164,8.296c1.083,3.07,2.424,6.067,3.885,8.981
	c0.69,1.377,0.61,2.271-0.348,3.425c-4.005,4.829-7.942,9.718-11.883,14.602c-0.873,1.078-1.741,2.176-2.468,3.354
	c-0.438,0.716-0.729,1.588-0.852,2.421c-0.236,1.595,0.75,3.134,2.456,3.501c1.559,0.336,3.22,0.461,4.809,0.343
	c5.5-0.404,10.494-2.336,14.908-5.606c5.721-4.236,7.557-10.019,6.171-16.872c-0.374-1.859-1.037-3.666-1.682-5.458
	c-0.289-0.809-0.309-1.375,0.219-2.128c4.572-6.53,8.479-13.458,12.113-20.545c0.144-0.278,0.291-0.558,0.543-0.855
	c1.177,6.126,2.949,12.03,6.125,17.389c-1.619,1.561-3.223,2.976-4.675,4.536c-3.194,3.434-5.964,7.163-7.409,11.711
	c-0.622,1.961-1.1,3.952-0.823,6.047c0.43,3.251,3.094,5.364,6.292,4.625c6.844-1.584,12.752-4.81,17.069-10.523
	c2.905-3.847,3.17-8.136,1.954-12.632c-0.335-1.221-0.73-2.423-1.156-3.823c1.688-0.525,3.334-1.154,5.037-1.542
	c8.842-2.017,17.588-1.665,26.108,1.527c4.975,1.865,8.993,4.985,11.376,9.893c2.91,6.001,1.302,11.695-4.354,15.487
	c-0.526,0.354-1.13,0.633-1.567,1.075c-0.268,0.271-0.43,0.815-0.364,1.188c0.037,0.219,0.614,0.493,0.946,0.489
	c1.859-0.015,3.367-0.989,4.814-1.991c3.626-2.509,6.271-5.884,6.843-10.329l0.111-0.335l-0.137-2.895
	c-0.055-0.166,0.041-0.331,0.029-0.458c-0.771-6.473-4.229-11.492-9.258-15.429c-5.825-4.556-12.703-6.431-19.977-6.727
	c-5.928-0.242-11.755,0.639-17.342,2.67c-1.593,0.576-3.171,1.259-4.772,1.904c-0.215-0.39-0.446-0.761-0.637-1.147
	c-1.644-3.366-3.637-6.584-4.077-10.445c-0.312-2.741-0.695-5.48-0.044-8.191c0.627-2.608,1.444-5.173,2.213-7.746
	c0.396-1.325,0.117-2.067-1.147-2.664c-0.44-0.207-0.92-0.389-1.396-0.458c-3.107-0.451-6.172-0.193-9.182,0.682
	c-1.065,0.311-1.84,0.907-2.077,2.087c-0.134,0.677-0.409,1.324-0.602,1.992c-0.786,2.775-1.344,5.604-2.615,8.25
	c-3.187,6.632-6.823,13.014-10.546,19.351c-0.401,0.683-0.827,1.355-1.335,2.184c-1.307-2.734-2.701-5.188-3.124-8.066
	c-0.477-3.253-0.854-6.501-0.044-9.729c0.602-2.407,1.389-4.771,2.113-7.147c0.343-1.129,0.185-1.722-0.838-2.317
	c-0.518-0.3-1.101-0.566-1.684-0.653c-3.223-0.478-6.398-0.228-9.508,0.778c-0.964,0.313-1.471,0.936-1.765,1.93
	c-0.867,2.934-1.606,5.938-2.823,8.729c-4.925,11.295-9.993,22.529-15.056,33.765c-1.056,2.345-2.295,4.609-3.486,6.893
	c-0.302,0.578-0.742,1.09-1.118,1.633c-0.302-0.356-0.42-0.604-0.418-0.848c0.009-1.444-0.163-2.931,0.112-4.325
	c0.833-4.225,1.792-8.423,2.802-12.606c0.834-3.456,1.806-6.881,2.732-10.313c0.31-1.148,0.315-2.223-0.51-3.189
	c-1.387-1.618-4.285-1.973-6.004-0.727l-0.759,0.43l0.147-1.225c0.362-2.626,0.435-5.244-0.286-7.831
	c-0.899-3.225-3.2-5.081-6.545-4.979c-1.559,0.048-3.196,0.314-4.641,0.883c-6.071,2.38-10.74,6.594-14.714,11.664
	c-0.361,0.46-0.837,0.879-1.345,1.161c-5.137,2.849-10.291,5.661-15.442,8.484l-5.734,3.143c-1.538-1.468-2.935-2.988-4.521-4.28
	c-4.843-3.949-9.764-7.802-14.64-11.706c-4.323-3.461-8.51-7.066-11.713-11.649c-2.383-3.409-3.919-7.141-4.067-11.356
	c-0.186-5.372,1.337-10.28,4.072-14.85c3.498-5.846,8.27-10.538,13.516-14.787c5.55-4.493,11.552-8.308,17.773-11.79
	c8.703-4.871,17.655-9.183,27.253-12.029c9.841-2.92,19.827-4.591,30.127-3.426c4.049,0.458,7.981,1.385,11.59,3.365
	c2.766,1.515,5.033,3.498,6.088,6.599c1.041,3.051,1.009,6.144,0.287,9.242c-1.464,6.275-4.9,11.448-9.225,16.071
	c-7.093,7.577-15.745,12.735-25.485,16.144c-5.62,1.966-11.402,3.2-17.341,3.699c-4.846,0.406-9.591-0.023-14.18-1.708
	c-3.038-1.117-5.685-2.826-7.812-5.305c-0.379-0.444-0.866-0.925-1.575-0.51c-0.694,0.408-0.817,1.069-0.584,1.738
	c0.389,1.112,0.748,2.27,1.353,3.265c1.522,2.494,3.742,4.305,6.186,5.856c4.694,2.984,9.94,3.988,15.379,4.221
	c8.254,0.357,16.308-0.875,24.247-3.09c11.336-3.161,21.192-8.744,29.097-17.552c6.58-7.335,11.28-15.611,12.287-25.606
	c0.493-4.878-0.031-9.656-2.315-14.106c-2.478-4.821-6.416-8.407-11.125-10.877c-6.858-3.597-14.261-5.69-21.9-5.69h-7.653
	c-9.251,0-18.197,2.651-26.892,5.814c-6.581,2.396-13.034,5.223-19.298,8.352C48.423,43.106,35.717,51.327,25.28,62.63
	c-5.2,5.631-9.602,11.845-12.134,19.161c-0.741,2.142-1.444,4.438-1.974,6.652 M60.61,152.396
	c-0.591,7.919-4.18,14.337-10.045,19.538c-3.299,2.923-7.084,5.005-11.491,5.735c-1.599,0.265-3.234,0.329-4.785-0.334
	c-2.21-0.943-2.706-2.906-2.749-4.997c-0.065-3.331,1.101-6.343,2.701-9.209c2.088-3.737,5.15-6.585,8.419-9.245
	c5.15-4.193,10.736-7.741,16.458-11.09l0.431-0.178C60.435,145.884,60.855,149.111,60.61,152.396z M105.287,117.983
	c-0.417,2.527-0.939,5.06-1.678,7.51c-2.554,8.481-5.834,16.703-9.38,24.813c-0.655,1.502-1.609,2.87-2.438,4.293
	c-0.129,0.221-0.318,0.411-0.503,0.592c-1.027,1.016-2,0.963-2.518-0.364c-0.604-1.542-0.975-3.19-1.294-4.823
	c-0.215-1.097-0.164-2.247-0.231-3.369c0.069-7.979,2.504-15.233,6.635-21.985c1.702-2.783,3.556-5.437,6.389-7.198
	c0.871-0.542,1.848-0.977,2.833-1.254C104.61,115.771,105.537,116.47,105.287,117.983z M135.768,156.816l10.954-12.792
	C147.179,148.776,139.104,158.259,135.768,156.816z M170.757,148.209c-0.775,0.444-1.618,0.763-2.411,1.174
	c-0.727,0.377-0.967-0.003-0.988-0.629c-0.014-0.424,0.048-0.867,0.165-1.28c1.479-5.218,4.202-9.672,8.253-13.294l0.284-0.145
	C177.985,139.424,175.759,145.342,170.757,148.209L170.757,148.209z"/>
</svg>
