<?xml version="1.0" encoding="utf-8"?>
<!-- Generator: Adobe Illustrator 16.0.0, SVG Export Plug-In . SVG Version: 6.00 Build 0)  -->
<!DOCTYPE svg PUBLIC "-//W3C//DTD SVG 1.1//EN" "http://www.w3.org/Graphics/SVG/1.1/DTD/svg11.dtd">
<svg version="1.1" id="Layer_1" xmlns="http://www.w3.org/2000/svg" xmlns:xlink="http://www.w3.org/1999/xlink" x="0px" y="0px"
	 width="245px" height="245px" viewBox="0 0 245 245" enable-background="new 0 0 245 245" xml:space="preserve">
<circle stroke="#000000" stroke-miterlimit="10" cx="122.872" cy="122.578" r="121.5"/>
<path fill="#FFFFFF" stroke="#000000" stroke-miterlimit="10" d="M132.092,53.874c38.363-0.126,74.992,32.23,69.695,71.054
	c-9.766,71.549-30.84,64.767-69.203,64.892c-10.644,0.035-15.586-6.611-29.791-0.136c-23.763,10.833-39.832-35.855-39.927-64.299
	C62.739,86.017,93.732,54,132.092,53.874z"/>
<path d="M100.943,129.221h20.663c-3.557-12.099-7.06-23.282-10.506-34.649C107.754,105.979,104.361,117.122,100.943,129.221z
	 M203.319,37.811H40.34c-2.938,0-2.518,0.64-2.518,3.475v163.187c0,2.832-0.421,2.717,2.311,2.717h163.393
	c2.729,0,3.675,0.115,3.675-2.718V41.492C207.201,38.45,206.258,37.811,203.319,37.811z M140.388,165.517
	c-2.2,0-4.408-0.179-6.599-0.022c-1.579,0.119-2.108-0.545-2.528-1.916c-2.036-6.629-4.199-13.255-6.235-19.882
	c-0.409-1.334-0.996-1.82-2.441-1.803c-7.424,0.086-14.853,0.077-22.279-0.01c-1.563-0.019-2.283,0.398-2.729,1.949
	c-1.89,6.593-3.958,13.131-5.868,19.717c-0.414,1.428-1.043,1.926-2.559,1.887c-4.46-0.11-8.928-0.042-13.812-0.042
	c1.29-4.094,2.459-7.879,3.668-11.648c7.413-23.122,14.85-46.243,22.209-69.38c0.514-1.61,1.227-2.106,2.881-2.07
	c5.223,0.116,10.452,0.03,15.678,0c0.977-0.006,1.644,0.052,2.001,1.162c8.745,27.041,17.52,54.25,26.288,81.288
	c0.036,0.122,0.014,0.771,0.032,0.771H140.388L140.388,165.517z M168.218,165.517h-16.132v-60.493h16.132V165.517z M159.682,96.863
	c-4.928-0.007-8.454-3.398-8.488-8.16c-0.032-4.748,3.639-8.279,8.611-8.285c5.012-0.005,8.543,3.41,8.582,8.295
	C168.422,93.479,164.802,96.87,159.682,96.863z"/>
</svg>
