<?xml version="1.0" encoding="utf-8"?>
<!-- Generator: Adobe Illustrator 16.0.0, SVG Export Plug-In . SVG Version: 6.00 Build 0)  -->
<!DOCTYPE svg PUBLIC "-//W3C//DTD SVG 1.1//EN" "http://www.w3.org/Graphics/SVG/1.1/DTD/svg11.dtd">
<svg version="1.1" id="Layer_1" xmlns="http://www.w3.org/2000/svg" xmlns:xlink="http://www.w3.org/1999/xlink" x="0px" y="0px"
	 width="245px" height="245px" viewBox="0 0 245 245" enable-background="new 0 0 245 245" xml:space="preserve">
<circle stroke="#000000" stroke-miterlimit="10" cx="122.872" cy="122.578" r="121.5"/>
<ellipse fill="#FFFFFF" stroke="#000000" stroke-miterlimit="10" cx="128.172" cy="128.104" rx="73.375" ry="82.523"/>
<path d="M108.495,127.518h36.328l-19.311-40.381L108.495,127.518z M125.576,29.247L33.105,61.789l14.611,121.154l77.958,42.844
	l78.358-43.424l14.606-121.15L125.576,29.247z M100.973,144.684l-11.336,28.363l-21.193,0.086L125.57,46.61l-0.109-0.239h-0.101
	l0.001-0.208l0.1,0.208h0.22l0.191-0.428v0.428h-0.193l-0.108,0.239l59.595,127.05l-20.402-0.447l-12.549-28.992l-26.799,0.127"/>
</svg>
