<?xml version="1.0" encoding="utf-8"?>
<!-- Generator: Adobe Illustrator 16.0.0, SVG Export Plug-In . SVG Version: 6.00 Build 0)  -->
<!DOCTYPE svg PUBLIC "-//W3C//DTD SVG 1.1//EN" "http://www.w3.org/Graphics/SVG/1.1/DTD/svg11.dtd">
<svg version="1.1" id="Layer_1" xmlns="http://www.w3.org/2000/svg" xmlns:xlink="http://www.w3.org/1999/xlink" x="0px" y="0px"
	 width="245px" height="245px" viewBox="0 0 245 245" enable-background="new 0 0 245 245" xml:space="preserve">
<circle cx="122.5" cy="122.5" r="121.5"/>
<path id="email-10-icon" fill="#FFFFFF" d="M122.5,37.415c22.727,0,44.094,8.851,60.165,24.921
	c16.072,16.07,24.922,37.437,24.922,60.164c0,22.727-8.852,44.093-24.922,60.164c-16.07,16.07-37.438,24.921-60.165,24.921
	c-22.726,0-44.092-8.851-60.164-24.921c-16.07-16.071-24.921-37.438-24.921-60.164c0-22.728,8.851-44.093,24.921-60.164
	C78.406,46.266,99.773,37.415,122.5,37.415 M122.5,16.913c-58.314,0-105.586,47.272-105.586,105.587S64.186,228.087,122.5,228.087
	c58.315,0,105.588-47.272,105.588-105.587S180.814,16.913,122.5,16.913L122.5,16.913z M100.675,118.582L69.163,94.376v55.717
	L100.675,118.582z M176.582,83.124H69.534l53.481,41.083L176.582,83.124z M138.006,124.241l-14.994,11.5l-15.021-11.537
	l-38.697,38.697h107.374L138.006,124.241z M145.328,118.624l31.533,31.533V94.439L145.328,118.624z"/>
</svg>
