<?xml version="1.0" encoding="utf-8"?>
<!-- Generator: Adobe Illustrator 16.0.0, SVG Export Plug-In . SVG Version: 6.00 Build 0)  -->
<!DOCTYPE svg PUBLIC "-//W3C//DTD SVG 1.1//EN" "http://www.w3.org/Graphics/SVG/1.1/DTD/svg11.dtd">
<svg version="1.1" id="Layer_1" xmlns="http://www.w3.org/2000/svg" xmlns:xlink="http://www.w3.org/1999/xlink" x="0px" y="0px"
	 width="245px" height="245px" viewBox="0 0 245 245" enable-background="new 0 0 245 245" xml:space="preserve">
<circle stroke="#000000" stroke-miterlimit="10" cx="122.872" cy="122.578" r="121.5"/>
<ellipse fill="#FFFFFF" stroke="#000000" stroke-miterlimit="10" cx="346.442" cy="134.825" rx="69.862" ry="83.089"/>
<path fill="#FFFFFF" d="M212.586,118.295l-79.877-79.873c-4.598-4.6-12.058-4.6-16.662,0L99.463,55.01l21.041,21.04
	c4.891-1.651,10.497-0.543,14.393,3.354c3.917,3.921,5.018,9.575,3.323,14.482l20.277,20.28c4.906-1.691,10.568-0.598,14.484,3.326
	c5.478,5.474,5.478,14.348,0,19.824c-5.479,5.478-14.349,5.478-19.83,0c-4.119-4.121-5.138-10.173-3.051-15.248l-18.909-18.911
	l-0.003,49.768c1.336,0.66,2.596,1.54,3.708,2.649c5.478,5.474,5.478,14.345,0,19.829c-5.477,5.475-14.354,5.475-19.823,0
	c-5.476-5.483-5.925-14.354-0.451-19.829c1.354-1.353,2.688-2.374,4.138-3.058v-50.229c-1.449-0.684-2.782-1.698-4.139-3.059
	c-4.146-4.145-4.921-10.231-2.793-15.327L91.199,63.159l-54.713,54.767c-4.602,4.604-4.573,12.064,0.029,16.666l79.89,79.872
	c4.598,4.601,12.065,4.601,16.67,0l79.505-79.501C217.182,130.359,217.187,122.895,212.586,118.295L212.586,118.295z"/>
</svg>
