<?xml version="1.0" encoding="utf-8"?>
<!-- Generator: Adobe Illustrator 16.0.0, SVG Export Plug-In . SVG Version: 6.00 Build 0)  -->
<!DOCTYPE svg PUBLIC "-//W3C//DTD SVG 1.1//EN" "http://www.w3.org/Graphics/SVG/1.1/DTD/svg11.dtd">
<svg version="1.1" id="Layer_1" xmlns="http://www.w3.org/2000/svg" xmlns:xlink="http://www.w3.org/1999/xlink" x="0px" y="0px"
	 width="245px" height="245px" viewBox="0 0 245 245" enable-background="new 0 0 245 245" xml:space="preserve">
<circle stroke="#000000" stroke-miterlimit="10" cx="122.872" cy="122.578" r="121.5"/>
<ellipse fill="#FFFFFF" stroke="#000000" stroke-miterlimit="10" cx="346.442" cy="134.825" rx="69.862" ry="83.089"/>
<path fill="#FFFFFF" d="M83.957,81.027c1.344,14.146,2.677,28.211,4.041,42.594c2.223-3.823,3.832-7.49,6.259-10.493
	c2.261-2.799,5.109-5.38,8.208-7.168c4.046-2.336,9.353-0.137,10.665,4.005c0.352,1.11-0.489,2.6-0.783,3.916
	c-0.99-0.521-2.266-0.811-2.913-1.61c-2.747-3.397-4.402-3.798-7.44-0.862c-5.668,5.479-8.854,12.344-10.071,20.059
	c-0.234,1.493,0.698,3.167,1.092,4.758c1.548-0.533,3.348-0.729,4.6-1.661c4.069-3.029,6.592-7.149,7.983-12.074
	c0.302-1.066,1.938-1.754,2.962-2.616c0.49,1.007,1.609,2.194,1.375,2.994c-2.156,7.416-4.497,14.784-6.951,22.108
	c-0.248,0.741-1.61,1.109-2.457,1.652c-0.342-0.974-1.061-1.995-0.945-2.913c0.257-2.079,0.927-4.11,1.394-6.017l-11.093,5.106
	c0.62,7.083,1.264,15.027,2.027,22.962c0.585,6.059,1.576,7.627,7.543,8.776c6.962,1.342,14.055,2.197,21.132,2.719
	c10.458,0.771,20.824-0.183,30.998-2.917c3.788-1.019,5.299-3.511,5.569-7.229c0.248-3.424,0.804-6.828,1.188-10.242
	c0.755-6.729,1.489-13.459,2.261-20.469c-2.554,1.618-4.563,3.429-6.912,4.197c-1.709,0.56-3.867-0.26-5.827-0.465
	c0.376-1.798,0.353-3.826,1.221-5.343c1.412-2.479,3.407-4.629,5.153-6.918l-0.752-0.905c-1.252,0.739-2.807,1.226-3.697,2.274
	c-1.812,2.136-3.584,4.424-4.796,6.927c-2.028,4.19-3.574,8.613-5.391,12.91c-0.788,1.863-1.47,4.714-4.112,3.626
	c-2.827-1.167-0.838-3.656-0.174-5.428c1.055-2.825,2.449-5.525,3.393-7.604c-2.675,0.319-5.387,0.704-8.111,0.941
	c-1.152,0.099-2.521-0.533-3.465-0.107c-3.133,1.416-5.119,0.848-5.77-2.622c-1.451,0.942-2.68,2.219-4.128,2.563
	c-1.757,0.419-4.141,0.692-5.428-0.187c-1.031-0.701-1.407-3.346-1.054-4.896c0.701-3.082,2.009-6.046,3.251-8.977
	c0.77-1.816,1.543-4.716,4.139-3.452c2.565,1.245,0.236,3.348-0.355,5.035c-0.918,2.607-1.853,5.211-2.778,7.815l1.471,0.889
	c1.401-1.217,3.146-2.208,4.127-3.699c1.605-2.441,2.575-5.29,4.095-7.795c0.631-1.036,1.986-1.631,3.014-2.426
	c0.209,1.32,0.708,2.678,0.543,3.952c-0.163,1.29-1.069,2.467-1.503,3.743c-0.651,1.909-1.177,3.86-1.839,6.08
	c3.131,0.121,4.472-1.197,5.355-3.522c2.799-7.344,5.627-14.68,8.701-21.911c0.526-1.237,2.313-1.937,3.519-2.887
	c0.14,1.492,0.804,3.185,0.331,4.442c-2.521,6.663-5.352,13.207-8.011,19.819c-0.448,1.115-0.593,2.35-0.876,3.53
	c4.687-2.105,8.599-4.436,10.026-9.417c0.35-1.21,1.78-2.11,2.714-3.153l2.17,2.298c0.658-0.555,1.262-1.185,1.978-1.646
	c2.253-1.45,4.679-2.73,7.054-0.482c2.457,2.324,0.597,4.589-0.687,6.6c-1.398,2.191-3.109,4.182-4.685,6.26
	c3.543-2.282,8.38-3.307,9.023-8.239c1.569-12.052,2.948-24.128,4.347-36.2c0.415-3.573,0.638-7.17,0.961-10.893
	C138.931,87.888,111.628,87.93,83.957,81.027L83.957,81.027z M95.933,175.059c1.344,3.551,3.384,7.038,3.919,10.743
	c1.13,7.887,1.417,15.894,2.215,23.833c0.118,1.157,0.866,2.745,1.801,3.255c13.759,7.477,27.653,8.773,41.691,0.596
	c2.094-1.22,2.481-2.83,2.754-5.096c1.313-11.002-1.61-22.674,5.424-33.035C134.039,180.242,114.813,180.394,95.933,175.059
	L95.933,175.059z M143.419,83.002c6.683-0.645,13.286-2.214,19.896-3.511c1.245-0.244,2.352-1.192,3.522-1.815
	c-1.543-1.356-2.878-2.009-4.271-2.173c-6.942-0.82-13.907-1.451-20.844-2.311c-1.048-0.13-2.918-1.423-2.84-1.659
	c2.023-6.099,1.924-13.001,6.518-18.141c5.806-6.497,11.67-12.937,17.492-19.38c-4.33-4.658-4.389-4.664-8.313-0.586
	c-2.219,2.304-4.247,4.827-6.653,6.914c-8.907,7.719-15.163,16.862-16.383,28.916c-0.28,2.766-1.799,3.765-4.702,3.808
	c-9.586,0.14-19.183,0.403-28.747,1.033c-4.739,0.312-9.42,1.528-14.129,2.333l-0.042,1.761c2.947,0.909,5.836,2.103,8.846,2.68
	C109.538,84.085,126.465,84.637,143.419,83.002L143.419,83.002z M138.063,78.791c-3.796,3.064-6.932,3.064-9.961,0H138.063z"/>
</svg>
