<?xml version="1.0" encoding="utf-8"?>
<!-- Generator: Adobe Illustrator 16.0.0, SVG Export Plug-In . SVG Version: 6.00 Build 0)  -->
<!DOCTYPE svg PUBLIC "-//W3C//DTD SVG 1.1//EN" "http://www.w3.org/Graphics/SVG/1.1/DTD/svg11.dtd">
<svg version="1.1" id="Layer_1" xmlns="http://www.w3.org/2000/svg" xmlns:xlink="http://www.w3.org/1999/xlink" x="0px" y="0px"
	 width="245px" height="245px" viewBox="0 0 245 245" enable-background="new 0 0 245 245" xml:space="preserve">
<circle stroke="#000000" stroke-miterlimit="10" cx="122.872" cy="122.578" r="121.5"/>
<ellipse fill="#FFFFFF" stroke="#000000" stroke-miterlimit="10" cx="346.442" cy="134.825" rx="69.862" ry="83.089"/>
<g id="original">
	<path id="Path-2" fill="#FFFFFF" d="M27.936,120.004c2.105-1.729,3.645-4.049,4.421-6.661c0.88-3.828,0.689-7.542-4.421-10.145
		c-12.958-6.546-21.323,5.129-22.625,7.867c-1.301,2.737-3.33,7.044-1.914,16.919c1.417,9.877,6.106,18.949,21.055,22.452
		c14.183,3.278,29.064,1.54,42.109-4.919c13.092-6.24,37.707-17.227,43.909-18.337c4.066-0.997,8.235-1.518,12.422-1.55v-15.025
		c-6.646-11.907-19.689-18.773-33.267-17.514c-23.715,1.876-33.132,14.145-38.913,19.313c-5.781,5.168-16.48,17.551-23.677,15.312
		c-7.197-2.239-9.207-10.91-6.661-13.666c2.545-2.756,4.536-2.258,6.086,0C27.463,115.874,27.971,117.926,27.936,120.004z"/>
	<path id="Path-2-Copy" fill="#FFFFFF" d="M217.084,120.004c-2.105-1.729-3.645-4.049-4.422-6.661
		c-0.881-3.828-0.689-7.542,4.422-10.145c12.938-6.565,21.303,5.11,22.604,7.867s3.331,7.044,1.914,16.919
		c-1.416,9.877-6.105,18.949-21.055,22.452c-14.177,3.274-29.05,1.536-42.09-4.919c-13.093-6.24-37.707-17.227-43.909-18.337
		c-4.066-0.997-8.234-1.518-12.422-1.55v-15.025c6.646-11.907,19.689-18.773,33.267-17.514
		c23.715,1.914,33.151,14.126,38.932,19.294s16.48,17.552,23.677,15.312c7.197-2.239,9.207-11.024,6.661-13.761
		s-4.536-2.259-6.087,0C217.549,115.791,217.034,117.885,217.084,120.004z"/>
</g>
</svg>
