<?xml version="1.0" encoding="utf-8"?>
<!-- Generator: Adobe Illustrator 16.0.0, SVG Export Plug-In . SVG Version: 6.00 Build 0)  -->
<!DOCTYPE svg PUBLIC "-//W3C//DTD SVG 1.1//EN" "http://www.w3.org/Graphics/SVG/1.1/DTD/svg11.dtd">
<svg version="1.1" id="Layer_1" xmlns="http://www.w3.org/2000/svg" xmlns:xlink="http://www.w3.org/1999/xlink" x="0px" y="0px"
	 width="245px" height="245px" viewBox="0 0 245 245" enable-background="new 0 0 245 245" xml:space="preserve">
<circle stroke="#000000" stroke-miterlimit="10" cx="122.872" cy="122.578" r="121.5"/>
<ellipse fill="#FFFFFF" stroke="#000000" stroke-miterlimit="10" cx="120.71" cy="111.005" rx="58.573" ry="69.661"/>
<path d="M50.073,40.482L63.256,188.18l59.155,16.338l59.32-16.32l13.197-147.715H50.073L50.073,40.482z M167.506,75.45l-0.826,9.45
	l-0.363,4.334H96.924l1.656,18.447h66.087l-0.443,4.574l-4.26,47.589l-0.314,2.992l-37.15,10.211v0.004l-0.044,0.021l-37.127-9.779
	l-2.521-27.943h18.203l1.29,14.389l20.143,5.377h0.057v-0.721l20.232-5.105l2.113-23.16H81.997L77.54,75.903l-0.433-5.116h90.835
	L167.506,75.45L167.506,75.45z"/>
</svg>
