<?xml version="1.0" encoding="utf-8"?>
<!-- Generator: Adobe Illustrator 16.0.0, SVG Export Plug-In . SVG Version: 6.00 Build 0)  -->
<!DOCTYPE svg PUBLIC "-//W3C//DTD SVG 1.1//EN" "http://www.w3.org/Graphics/SVG/1.1/DTD/svg11.dtd">
<svg version="1.1" id="Layer_1" xmlns="http://www.w3.org/2000/svg" xmlns:xlink="http://www.w3.org/1999/xlink" x="0px" y="0px"
	 width="245px" height="245px" viewBox="0 0 245 245" enable-background="new 0 0 245 245" xml:space="preserve">
<circle stroke="#000000" stroke-miterlimit="10" cx="122.872" cy="122.578" r="121.5"/>
<path fill="#FFFFFF" stroke="#000000" stroke-miterlimit="10" d="M119.377,57.671c38.474-0.126,75.19,26.439,69.854,58.345
	c-9.836,58.8-30.994,58.673-69.469,58.8c-38.472,0.126-69.746-25.994-69.853-58.342C49.803,84.125,80.905,57.798,119.377,57.671z"/>
<path d="M35.626,49.262c0,32.043,0,128.172,0,128.172h154.141V23.292H58.733C58.733,23.292,35.626,42.77,35.626,49.262z
	 M117.159,154.637c-2.275,4.623-6.619,7.659-11.651,9.127c-7.733,1.774-15.129,0.762-20.632-2.539
	c-3.682-2.261-6.558-5.737-8.51-9.744l11.74-7.189c0.102,0.044,0.41,0.602,0.822,1.322c1.497,2.508,2.788,4.283,5.326,5.529
	c2.494,0.851,7.967,1.396,10.081-2.992c1.292-2.232,0.88-9.406,0.88-17.345c-0.001-12.473,0.057-24.894,0.057-37.225h14.438
	c0,13.564,0.074,26.412,0,39.648C119.743,141.341,120.446,148.575,117.159,154.637L117.159,154.637z M177.056,150.558
	c-5.018,17.167-33,17.724-44.182,6.383c-2.362-2.67-3.844-4.065-5.253-7.146c5.941-3.417,5.941-3.417,11.724-6.764
	c3.142,4.828,6.046,7.482,11.27,8.569c7.089,0.866,14.221-1.57,12.62-9.099c-1.643-6.148-14.514-7.644-23.272-14.22
	c-8.892-5.972-10.976-20.483-3.67-28.774c2.438-3.066,6.59-5.355,10.948-6.456l4.548-0.588c8.731-0.176,14.189,2.13,18.196,6.604
	c1.114,1.129,2.023,2.348,3.726,4.988c-4.651,2.964-4.637,2.936-11.299,7.25c-1.423-3.066-3.785-4.99-6.28-5.826
	c-3.874-1.174-8.76,0.102-9.774,4.196c-0.352,1.261-0.279,2.435,0.28,4.52c1.57,3.579,6.838,5.136,11.563,7.307
	c13.603,5.518,18.196,11.433,19.326,18.474C178.613,146.037,177.263,149.97,177.056,150.558L177.056,150.558z"/>
</svg>
