<?xml version="1.0" encoding="utf-8"?>
<!-- Generator: Adobe Illustrator 16.0.0, SVG Export Plug-In . SVG Version: 6.00 Build 0)  -->
<!DOCTYPE svg PUBLIC "-//W3C//DTD SVG 1.1//EN" "http://www.w3.org/Graphics/SVG/1.1/DTD/svg11.dtd">
<svg version="1.1" id="Layer_1" xmlns="http://www.w3.org/2000/svg" xmlns:xlink="http://www.w3.org/1999/xlink" x="0px" y="0px"
	 width="245px" height="245px" viewBox="0 0 245 245" enable-background="new 0 0 245 245" xml:space="preserve">
<circle stroke="#000000" stroke-miterlimit="10" cx="122.5" cy="122.578" r="121.5"/>
<path fill="#FFFFFF" stroke="#000000" stroke-miterlimit="10" d="M352.971,61.189c54.197-0.179,105.869,22.769,98.299,50.417
	c-13.963,50.954-43.719,46.175-97.916,46.353c-15.037,0.049-21.914-4.265-42.085-0.029c-43.032,9.035-56.188-25.432-56.257-45.678
	C254.921,84.229,298.781,61.367,352.971,61.189z"/>
<path fill="#808080" stroke="#EB7077" stroke-width="0.0938" d="M67.298,59.42c0.829-1.41,1.908-2.765,3.456-3.428
	c0.636-0.111,1.272-0.056,1.908-0.056c10.424,0,20.875,0,31.298,0c-0.912,0.774-1.797,1.576-2.405,2.626
	c-1.604,2.627-2.682,5.558-3.677,8.489c-2.82,8.848-4.784,17.944-6.691,27.041c-0.857,4.12-1.686,8.267-2.46,12.386
	c-2.378,13.493-4.838,26.958-7.908,40.313c-1.465,6.166-2.958,12.331-5.225,18.276c-1.051,2.46-2.074,5.087-4.093,6.912
	c-0.469,0.415-0.94,0.939-1.604,0.856c-9.207,0-18.442,0-27.649,0c-1.88-0.055-3.732,0.111-5.612-0.083
	c1.244-0.968,2.35-2.129,3.069-3.511c2.074-3.954,3.374-8.24,4.617-12.498c1.936-6.855,3.484-13.797,4.949-20.736
	c0.913-4.563,1.991-9.096,2.654-13.687c0.747-5.115,1.88-10.175,2.792-15.262c1.438-7.492,2.959-14.985,4.645-22.422
	c1.355-5.807,2.737-11.585,4.59-17.253C64.865,64.646,65.86,61.937,67.298,59.42z"/>
<path fill="#FFFFFF" stroke="#F6A2AD" stroke-width="0.0938" d="M103.96,55.937c0.802,0,1.604-0.027,2.406,0
	c1.77,0.94,3.262,2.433,4.092,4.286c1.105,2.101,2.018,4.313,2.847,6.581c2.765,8.543,4.646,17.336,6.525,26.101
	c1.604,7.853,3.125,15.732,4.562,23.64c0.11,0.415-0.027,0.995,0.525,1.106c-1.99,10.396-3.954,20.819-6.442,31.132
	c-1.354,5.559-2.792,11.088-4.838,16.451c-1.106,2.683-2.24,5.613-4.59,7.521c-1.493,0.332-2.571-0.802-3.483-1.824
	c-1.576-2.019-2.544-4.396-3.484-6.774c-3.124-8.516-5.032-17.391-6.968-26.238c-1.465-6.885-2.765-13.824-4.12-20.736
	c-0.608-3.513-1.438-6.968-1.908-10.479c-0.083-0.056-0.276-0.167-0.359-0.222c0.774-4.12,1.604-8.267,2.46-12.386
	c1.908-9.096,3.871-18.192,6.691-27.041c0.996-2.931,2.073-5.862,3.677-8.489C102.163,57.513,103.048,56.711,103.96,55.937z"/>
<path fill="#808080" stroke="#EB7077" stroke-width="0.0938" d="M138.55,60.72c0.994-1.908,2.211-4.037,4.367-4.755
	c10.978-0.055,21.953-0.028,32.931-0.028c-1.023,1.023-2.102,2.046-2.793,3.346c-2.129,3.815-3.373,8.045-4.646,12.221
	c-3.262,11.502-5.557,23.252-7.741,35.003c-2.019,11.585-4.175,23.169-6.636,34.7c-1.272,5.806-2.6,11.585-4.285,17.308
	c-1.078,3.54-2.212,7.106-3.982,10.396c-0.857,1.493-1.852,3.125-3.483,3.898c-10.479,0.083-20.985,0-31.464,0.027
	c-0.581,0-1.189,0-1.771-0.083c2.351-1.907,3.484-4.838,4.59-7.521c2.046-5.363,3.484-10.893,4.838-16.451
	c2.489-10.313,4.452-20.736,6.442-31.132c2.405-13.41,4.922-26.819,8.129-40.063C134.54,71.862,135.977,66.056,138.55,60.72z"/>
<path fill="#FFFFFF" stroke="#F6A2AD" stroke-width="0.0938" d="M175.848,55.937c0.885,0,1.797-0.027,2.682,0
	c1.438,0.747,2.46,2.019,3.373,3.318c1.493,2.378,2.434,5.06,3.4,7.686c2.295,7.051,4.01,14.295,5.585,21.539
	c2.102,9.76,3.927,19.575,5.724,29.391c0.442,2.351,0.885,4.729,1.161,7.106c0.111,0.11,0.333,0.332,0.415,0.414
	c-0.995,1.383-1.383,3.042-1.936,4.618c-1.742,5.612-2.875,11.418-3.843,17.196c-0.746,4.535-1.77,9.042-3.18,13.41
	c-1.051,3.235-2.323,6.442-4.424,9.151c-0.995,1.301-2.351,2.295-3.843,2.959c-2.296,0.249-3.65-1.963-4.756-3.594
	c-2.295-4.009-3.54-8.489-4.866-12.856c-4.368-16.175-7.217-32.737-10.285-49.188c-0.028-0.249-0.166-0.469-0.388-0.581
	c2.185-11.751,4.479-23.501,7.741-35.003c1.272-4.175,2.517-8.405,4.646-12.221C173.746,57.982,174.824,56.96,175.848,55.937z"/>
<path fill="#FFFFFF" stroke="#F6A2AD" stroke-width="0.0938" d="M10.756,118.838c0.719-0.056,1.438-0.166,2.184-0.166
	c10.064,0,20.101,0,30.138,0c1.271,0.166,2.599,0.056,3.815,0.608c1.77,0.719,3.346,1.935,4.507,3.456
	c0.139-0.082,0.387-0.304,0.525-0.415c-0.663,4.591-1.742,9.124-2.654,13.687c-1.465,6.939-3.014,13.881-4.949,20.736
	c-1.244,4.258-2.543,8.544-4.617,12.498c-0.719,1.382-1.825,2.543-3.069,3.511c-0.47,0.083-0.83-0.249-1.217-0.497
	c-1.299-0.829-2.046-2.268-2.848-3.566c-3.788-8.627-4.203-18.166-6.553-27.179c-1.189-4.507-2.654-8.987-4.811-13.134
	c-1.327-2.488-2.958-4.866-5.088-6.773C14.544,120.332,12.719,119.309,10.756,118.838z"/>
<path fill="#808080" stroke="#EB7077" stroke-width="0.0938" d="M200.62,121.713c1.743-1.963,4.342-3.206,6.968-3.096
	c7.549,0,15.124,0,22.672,0c3.152,0.055,6.332-0.11,9.484,0.083c-0.939,0.635-2.074,0.884-3.068,1.409
	c-3.457,1.576-6.416,4.203-8.296,7.493c-3.013,5.254-4.064,11.281-4.949,17.198c-0.885,5.806-0.856,11.806-2.736,17.446
	c-1.272,3.954-3.208,7.935-6.554,10.534c-10.396,0.11-20.792,0.027-31.16,0.055c-0.69,0-1.354,0.027-2.018-0.11
	c1.492-0.664,2.848-1.658,3.843-2.959c2.101-2.709,3.373-5.916,4.424-9.151c1.41-4.368,2.434-8.875,3.18-13.41
	c0.968-5.778,2.101-11.584,3.843-17.196c0.553-1.576,0.94-3.235,1.936-4.618C199.018,124.175,199.57,122.765,200.62,121.713z"/>
</svg>
