<?xml version="1.0" encoding="utf-8"?>
<!-- Generator: Adobe Illustrator 16.0.0, SVG Export Plug-In . SVG Version: 6.00 Build 0)  -->
<!DOCTYPE svg PUBLIC "-//W3C//DTD SVG 1.1//EN" "http://www.w3.org/Graphics/SVG/1.1/DTD/svg11.dtd">
<svg version="1.1" id="Layer_1" xmlns="http://www.w3.org/2000/svg" xmlns:xlink="http://www.w3.org/1999/xlink" x="0px" y="0px"
	 width="245px" height="245px" viewBox="0 0 245 245" enable-background="new 0 0 245 245" xml:space="preserve">
<circle stroke="#000000" stroke-miterlimit="10" cx="122.872" cy="122.578" r="121.5"/>
<path fill="#FFFFFF" stroke="#000000" stroke-miterlimit="10" d="M331.679,57.88c38.362-0.126,74.991,32.23,69.695,71.054
	c-9.766,71.549-30.841,64.767-69.204,64.892c-10.644,0.035-15.586-6.611-29.79-0.136c-23.763,10.833-39.832-35.855-39.927-64.299
	C262.325,90.023,293.318,58.006,331.679,57.88z"/>
<path fill="#FFFFFF" d="M201.625,68.332L130.6,27.134c-4.475-2.549-10.335-2.549-14.845,0L44.173,68.332
	c-4.616,2.656-7.755,7.649-7.755,12.989v82.286c0,5.341,3.205,10.335,7.823,13.005l18.872,10.762c9.054,4.46,11.562,4.46,15.68,4.46
	c13.41,0,20.374-8.107,20.374-22.248V88.347c0.001-1.146,0.717-2.854-0.411-2.854h-9.045c-1.146,0-3.414,1.708-3.414,2.853v81.238
	c0,6.269-5.819,12.506-16.415,7.208l-19.504-11.284c-0.679-0.37-1.087-1.115-1.087-1.9V81.321c0-0.775,0.745-1.554,1.434-1.952
	l71.403-41.127c0.667-0.378,1.613-0.378,2.277,0l70.734,41.118c0.68,0.407,0.57,1.161,0.57,1.961v82.286
	c0,0.785,0.148,1.55-0.52,1.928l-71.01,41.151c-0.607,0.365-1.399,0.365-2.067,0l-18.209-10.858c-0.549-0.319-1.21-0.434-1.737-0.14
	c-5.06,2.869-6.001,3.251-10.747,4.897c-1.169,0.406-2.895,1.113,0.656,3.104l23.81,14.085c2.279,1.318,4.872,2.005,7.478,2.005
	c2.643,0,5.227-0.687,7.508-2.005l70.756-41.162c4.619-2.689,6.955-7.664,6.955-13.005V81.321
	C208.58,75.981,206.244,71,201.625,68.332z M145.391,150.567c-18.869,0-23.023-5.204-24.409-14.587
	c-0.164-1.011-1.021-2.219-2.051-2.219h-9.219c-1.141,0-2.06,1.384-2.06,2.521c0,12.012,6.532,26.566,37.738,26.566
	c22.586,0,35.539-8.776,35.539-24.31c0-15.401-10.406-19.443-32.313-22.342c-22.143-2.926-24.393-4.405-24.393-9.593
	c0-4.276,1.906-9.979,18.301-9.979c14.648,0,20.049,3.144,22.27,13.018c0.193,0.928,1.039,1.595,1.998,1.595h9.258
	c0.568,0,1.111-0.23,1.51-0.638c0.389-0.438,0.592-0.986,0.541-1.575c-1.436-17.005-12.73-24.929-35.578-24.929
	c-20.324,0-32.446,8.582-32.446,22.968c0,15.604,12.063,19.915,31.571,21.844c23.34,2.288,25.154,5.699,25.154,10.29
	C166.803,147.171,160.402,150.567,145.391,150.567z"/>
</svg>
