<?xml version="1.0" encoding="utf-8"?>
<!-- Generator: Adobe Illustrator 16.0.0, SVG Export Plug-In . SVG Version: 6.00 Build 0)  -->
<!DOCTYPE svg PUBLIC "-//W3C//DTD SVG 1.1//EN" "http://www.w3.org/Graphics/SVG/1.1/DTD/svg11.dtd">
<svg version="1.1" id="Layer_1" xmlns="http://www.w3.org/2000/svg" xmlns:xlink="http://www.w3.org/1999/xlink" x="0px" y="0px"
	 width="245px" height="245px" viewBox="0 0 245 245" enable-background="new 0 0 245 245" xml:space="preserve">
<circle stroke="#000000" stroke-miterlimit="10" cx="122.872" cy="122.578" r="121.5"/>
<path fill="#FFFFFF" stroke="#000000" stroke-miterlimit="10" d="M123.633,72.76c54.197-0.179,105.869,22.769,98.298,50.417
	c-13.962,50.954-43.719,46.175-97.916,46.353c-15.037,0.049-21.913-4.265-42.084-0.029c-43.032,9.035-56.189-25.432-56.256-45.678
	C25.583,95.8,69.442,72.938,123.633,72.76z"/>
<path d="M122.5,63.239C57.919,63.239,5.563,89.771,5.563,122.5c0,32.729,52.357,59.262,116.938,59.262
	c64.58,0,116.938-26.533,116.938-59.262C239.438,89.771,187.08,63.239,122.5,63.239z M92.072,134.045
	c-2.791,2.611-5.89,3.689-9.303,4.799c-3.412,1.113-7.756,0.883-13.037,0.883H57.765l-3.317,19.141H40.473l12.47-65.078h26.874
	c8.085,0,13.982,2.326,17.689,6.569c3.708,4.244,4.822,10.267,3.344,17.872c-0.61,3.133-1.639,6.048-3.089,8.642
	C96.309,129.469,94.411,131.895,92.072,134.045z M132.863,139.727l5.514-27.601c0.627-3.231,0.398-5.631-0.691-6.805
	c-1.09-1.175-3.41-1.962-6.957-1.962h-11.082l-7.142,36.367H98.639l12.471-63.164h13.865l-3.314,17.227h12.352
	c7.771,0,13.131,1.56,16.082,4.271c2.949,2.71,3.832,6.423,2.654,12.495l-5.803,29.172H132.863z M209.92,118.331
	c-0.607,3.133-1.637,5.997-3.086,8.591c-1.451,2.598-3.346,4.973-5.688,7.123c-2.791,2.611-5.891,3.689-9.303,4.799
	c-3.41,1.113-7.758,0.883-13.037,0.883h-11.969l-3.316,19.141h-13.975l12.469-65.078h26.875c8.086,0,13.982,2.326,17.688,6.569
	C210.283,104.602,211.398,110.729,209.92,118.331z M183.594,103.359h-9.57l-5.221,26.797h8.502c5.631,0,9.83-0.555,12.588-2.68
	c2.76-2.121,4.617-5.413,5.584-10.376c0.928-4.768,0.506-8.487-1.262-10.447C192.443,104.693,188.904,103.359,183.594,103.359z
	 M74.521,103.359h-9.574l-5.219,26.797h8.5c5.633,0,9.83-0.555,12.589-2.68c2.759-2.121,4.618-5.413,5.583-10.376
	c0.927-4.768,0.506-8.487-1.263-10.447S79.832,103.359,74.521,103.359z"/>
</svg>
