<?xml version="1.0" encoding="utf-8"?>
<!-- Generator: Adobe Illustrator 16.0.0, SVG Export Plug-In . SVG Version: 6.00 Build 0)  -->
<!DOCTYPE svg PUBLIC "-//W3C//DTD SVG 1.1//EN" "http://www.w3.org/Graphics/SVG/1.1/DTD/svg11.dtd">
<svg version="1.1" id="Layer_1" xmlns="http://www.w3.org/2000/svg" xmlns:xlink="http://www.w3.org/1999/xlink" x="0px" y="0px"
	 width="245px" height="245px" viewBox="0 0 245 245" enable-background="new 0 0 245 245" xml:space="preserve">
<circle stroke="#000000" stroke-miterlimit="10" cx="122.872" cy="122.578" r="121.5"/>
<path fill="#FFFFFF" stroke="#000000" stroke-miterlimit="10" d="M125.038,53.874c38.363-0.126,74.992,32.23,69.695,71.054
	c-9.766,71.549-30.84,64.767-69.203,64.892c-10.645,0.035-15.586-6.611-29.791-0.136c-23.762,10.833-39.832-35.855-39.926-64.299
	C55.685,86.017,86.679,54,125.038,53.874z"/>
<path d="M104.217,92.909c-4.894-1.229-9.796-0.834-14.969-0.029c0,9.046-0.018,17.849,0.05,26.652
	c0.003,0.45,0.679,1.234,1.119,1.296c5.64,0.76,11.25,0.822,16.524-1.749c5.457-2.659,8.236-8.218,7.516-14.744
	C113.802,98.392,110.284,94.435,104.217,92.909z M206.246,122.615V41.956c0-2.786,0.031-3.038-2.675-3.038H42.05
	c-2.631,0-3.296,0.253-3.296,2.906v161.521c0,2.684,0.335,2.688,2.936,2.688c53.911,0.001,107.98-0.012,161.89,0.049
	c2.092,0.003,2.652-0.555,2.646-2.604C206.155,176.523,206.246,149.566,206.246,122.615z M112.333,130.378
	c-7.386,2.634-15.09,2.782-23.065,2.164v30.001H74.646v-1.863c0-25.117-0.116-50.23-0.187-75.348
	c-0.008-2.086,0.323-3.094,2.673-3.333c11.076-1.132,22.089-2.405,33.103,0.178c11.839,2.774,18.665,10.601,19.184,21.415
	C130.06,116.982,124.176,126.155,112.333,130.378z M171.235,147.332c-0.564,7.672-4.89,12.709-11.984,15.144
	c-9.494,3.259-18.936,2.502-28.214-1.185c-1.52-0.605-1.813-1.37-1.313-2.919c0.913-2.827,1.582-5.732,2.286-8.356
	c3.923,1.151,7.654,2.588,11.518,3.267c2.729,0.48,5.679,0.198,8.453-0.235c2.486-0.391,4.275-2.08,4.685-4.748
	c0.415-2.714-0.403-5.063-2.799-6.508c-1.903-1.146-4.001-1.966-6.012-2.927c-3.234-1.546-6.682-2.758-9.665-4.692
	c-11.739-7.612-7.917-21.778-0.084-27.111c4.191-2.853,8.83-4.118,13.795-4.293c5.84-0.204,11.463,0.802,16.986,3.487l-2.918,10.353
	c-2.313-0.818-4.467-1.881-6.74-2.304c-2.697-0.503-5.525-0.784-8.248-0.562c-3.649,0.3-5.788,2.818-5.788,5.942
	c0,1.85,0.702,3.416,2.246,4.313c2.214,1.288,4.564,2.35,6.894,3.428c2.521,1.166,5.181,2.062,7.607,3.392
	C168.413,134.367,171.784,139.857,171.235,147.332L171.235,147.332z"/>
</svg>
