<?xml version="1.0" encoding="utf-8"?>
<!-- Generator: Adobe Illustrator 16.0.0, SVG Export Plug-In . SVG Version: 6.00 Build 0)  -->
<!DOCTYPE svg PUBLIC "-//W3C//DTD SVG 1.1//EN" "http://www.w3.org/Graphics/SVG/1.1/DTD/svg11.dtd">
<svg version="1.1" id="Layer_1" xmlns="http://www.w3.org/2000/svg" xmlns:xlink="http://www.w3.org/1999/xlink" x="0px" y="0px"
	 width="245px" height="245px" viewBox="0 0 245 245" enable-background="new 0 0 245 245" xml:space="preserve">
<circle cx="122.5" cy="122.5" r="121.5"/>
<g>
	<path fill-rule="evenodd" clip-rule="evenodd" fill="#FFFFFF" d="M163.721,190.857c-5.307,1.477-10.479,2.975-15.686,4.34
		c-2.471,0.648-4.785,0.113-7.031-1.199c-10.5-6.135-19.307-14.283-27.534-23.098c-19.477-20.867-34.455-44.547-43.816-71.577
		c-2.071-5.979-3.148-12.321-4.387-18.556c-0.316-1.587,0.091-3.62,0.868-5.072c5.414-10.114,13.244-17.79,23.714-22.636
		c3.207-1.483,6.079-0.315,7.396,3.021c4.95,12.545,9.869,25.103,14.761,37.671c1.248,3.206,0.133,5.669-3.025,7.05
		c-0.137,0.06-0.271,0.124-0.412,0.17c-6.035,2-4.535,2.704-2.06,6.409c8.943,13.386,17.896,26.764,26.853,40.139
		c0.568,0.85,1.197,1.66,2.045,2.828c1.197-1.158,2.275-2.113,3.254-3.164c3.342-3.598,5.975-3.686,9.4-0.254
		c8.967,8.982,17.932,17.969,26.896,26.955c3.906,3.918,3.791,6.361-0.461,9.896c-0.275,0.229-0.525,0.49-0.822,0.768
		c0.914,1.072,1.822,2.049,2.629,3.105c6.074,7.965,5.148,16.59-2.486,23.057c-4.611,3.908-9.992,6.436-15.738,8.037
		c-31.914,8.887-62.671,7.01-91.099-11.271c-24.84-15.971-40.26-38.732-45.288-67.928C12.174,84.293,49.438,31.981,104.619,22.613
		c47.153-8.006,93.063,16.136,111.502,60.236c15.84,37.88,9.688,73.301-16.053,105.274c-2.357,2.928-6.053,3.318-8.668,1.162
		c-2.787-2.297-2.844-5.83-0.152-9.043c14.67-17.504,22.055-37.693,21.252-60.503c-1.52-43.088-32.498-78.257-74.934-85.607
		C91.477,26.147,46.812,54.78,34.872,99.963c-11.905,45.044,13.879,92.572,58.153,107.167c21.477,7.08,42.918,6.359,64.247-0.584
		c2.912-0.947,5.715-2.52,8.242-4.273c3.668-2.543,3.73-4.75,0.854-8.135C165.414,193.02,164.52,191.852,163.721,190.857z"/>
	<path fill-rule="evenodd" clip-rule="evenodd" fill="#FFFFFF" d="M155.68,133.27c2.625,0.158,4.824,1.145,6.645,2.908
		c7.717,7.479,15.432,14.961,23.088,22.502c2.891,2.846,3.422,7.68,1.451,11.352c-1.297,2.42-3.961,3.475-6.418,2.539
		c-2.352-0.896-3.496-3.271-3.088-5.961c0.109-0.719-0.154-1.771-0.652-2.264c-6.588-6.514-13.234-12.967-19.914-19.387
		c-0.494-0.473-1.375-0.818-2.053-0.781c-3.148,0.168-5.404-1.129-6.063-3.674c-0.67-2.594,0.707-5.15,3.594-6.373
		C153.338,133.68,154.539,133.547,155.68,133.27z"/>
	<path fill-rule="evenodd" clip-rule="evenodd" fill="#FFFFFF" d="M107.992,45.805c2.262,0.079,4.97,1.847,6.278,5.281
		c3.953,10.37,7.841,20.764,11.601,31.204c1.531,4.254-0.174,8.475-3.76,10.324c-2.205,1.139-4.5,0.845-6.141-0.786
		c-1.629-1.619-1.833-3.883-0.793-6.153c0.344-0.752,0.473-1.847,0.199-2.602c-3.132-8.623-6.343-17.217-9.598-25.794
		c-0.25-0.656-0.889-1.354-1.523-1.639c-2.752-1.235-4.133-3.396-3.563-5.88C101.304,47.091,103.333,45.708,107.992,45.805z"/>
</g>
</svg>
